<svg xmlns="http://www.w3.org/2000/svg" xmlns:xlink="http://www.w3.org/1999/xlink" viewBox="0 0 1136 1105"><g><rect width="1136" height="1105"/><g transform="translate(-8 -50)"><g transform="translate(-7962 -6327)"><text transform="translate(8615.853 6707.497) rotate(-24.918)" fill="#fff" font-size="28.396" font-family="D-DIN-Regular, D-DIN-Bold, D-DIN" font-weight="700"><tspan x="0" y="0">C</tspan></text><text transform="translate(8633.512 6699.293) rotate(-24.918)" fill="#fff" font-size="28.396" font-family="D-DIN-Regular, D-DIN-Bold, D-DIN" font-weight="700"><tspan x="0" y="0">H</tspan></text><text transform="translate(8652.885 6696.79) rotate(-24.918)" fill="#fff" font-size="21.297" font-family="D-DIN-Regular, D-DIN-Bold, D-DIN" font-weight="700"><tspan x="0" y="0">4</tspan></text><text transform="translate(8679.153 6678.314) rotate(-24.918)" fill="#fff" font-size="28.396" font-family="D-DIN-Regular, D-DIN-Bold, D-DIN" font-weight="700"><tspan x="0" y="0">O</tspan></text><text transform="translate(8663.373 6685.645) rotate(-24.918)" fill="#fff" font-size="28.396" font-family="D-DIN-Regular, D-DIN-Bold, D-DIN" font-weight="700"><tspan x="0" y="0">/</tspan></text><text transform="translate(8698.527 6675.812) rotate(-24.918)" fill="#fff" font-size="21.297" font-family="D-DIN-Regular, D-DIN-Bold, D-DIN" font-weight="700"><tspan x="0" y="0">2</tspan></text><path d="M8354.014,7317.412l-2.9,6.24-9.485-2.423.847-3.816-1.316-122.467,13.021-.161Z" fill="#fff"/><path d="M8337.6,7316.367" fill="#8c9091" stroke="#fff" stroke-miterlimit="10" stroke-width="1.497"/><line x1="0.176" y2="96.466" transform="translate(8341.437 7208.489)" fill="#8c9091" stroke="#fff" stroke-miterlimit="10" stroke-width="1.497"/><path d="M8341.607,7208.65l.012-17.054c0-.189.1-.342.22-.342l11.459.034c.121,0,.219.154.218.343l-.147,17.221" fill="#fff" stroke="#fff" stroke-miterlimit="10" stroke-width="1.497"/><path d="M8342.729,7199.346l.858-.222a.226.226,0,0,1,.209.048,1.143,1.143,0,0,1,.284.806c.009.494-.031.666-.333.76" fill="#fff" stroke="#fff" stroke-miterlimit="10" stroke-width="1.497"/><path d="M8343.4,7212.661l.36-.1c.316-.119.316-.119.353-.368l.771-5.269a2.746,2.746,0,0,0,.028-.382l0-2.067a2.689,2.689,0,0,0-.053-.534l-.442-3c-.041-.279-.192-.485-.374-.513l-.111-.031a.212.212,0,0,0-.093,0l-.627.13" fill="#fff" stroke="#fff" stroke-miterlimit="10" stroke-width="1.497"/><path d="M8345.843,7322.537l-.241,1.011c-.047.2.028.412.158.458l.1.034a1.384,1.384,0,0,0,.933,0l.091-.032c.133-.046.208-.266.158-.464l-.285-1.131" fill="none" stroke="#3d3d3d" stroke-miterlimit="10" stroke-width="1.497"/><path d="M8340.831,7319.518c-.047.2-.058,1.133.073,1.179l.1.034c.308.109.444-1.06.76-1.137" fill="none" stroke="#3d3d3d" stroke-miterlimit="10" stroke-width="1.497"/><path d="M8340.926,7319.481" fill="#fff" stroke="#fff" stroke-miterlimit="10" stroke-width="1.497"/><path d="M8342.38,7320.428l-.409.74c-.047.2.028.412.158.458l.1.034a1.378,1.378,0,0,0,.366.078" fill="#fff" stroke="#3d3d3d" stroke-miterlimit="10" stroke-width="1.497"/><path d="M8344,7323.821a1.4,1.4,0,0,0,.538-.077l.091-.032c.133-.046.207-.267.158-.464l-.163-.647" fill="#fff" stroke="#3d3d3d" stroke-miterlimit="10" stroke-width="1.497"/><path d="M8347.055,7323.414a.836.836,0,0,0,.71,0" fill="#fff" stroke="#3d3d3d" stroke-miterlimit="10" stroke-width="1.497"/><path d="M8345.669,7323.267a1.614,1.614,0,0,1-.548.079" fill="#fff" stroke="#3d3d3d" stroke-miterlimit="10" stroke-width="1.497"/><path d="M8341.607,7208.65l.456,98.119a58.8,58.8,0,0,1-.039,5.977l-.239,6.6" fill="#fff" stroke="#fff" stroke-miterlimit="10" stroke-width="1.497"/><path d="M8343.247,7200.244l.288.032a.453.453,0,0,1,.374.378l.441,2.2a1.472,1.472,0,0,1,.054.392l0,1.52a1.582,1.582,0,0,1-.028.281l-.771,3.873a.313.313,0,0,1-.353.271l-.746-.145a.734.734,0,0,1-.553-.641l-.564-4.032a2.957,2.957,0,0,1-.027-.4l0-1.326a1.094,1.094,0,0,1,.039-.287l.568-2.057a.221.221,0,0,1,.229-.173l.211.023" fill="#e5e5e5"/><path d="M8343.236,7200.513l-.033.288a.45.45,0,0,1-.377.374l-2.2.442a1.5,1.5,0,0,1-.393.053l-1.52,0a1.551,1.551,0,0,1-.281-.028l-3.874-.771a.313.313,0,0,1-.27-.353l.145-.746a.734.734,0,0,1,.642-.553l4.032-.564a2.865,2.865,0,0,1,.4-.028l1.325,0a1.117,1.117,0,0,1,.288.039l2.057.569a.219.219,0,0,1,.173.228l-.023.211" fill="#8c9091"/><g transform="matrix(0.999, -0.048, 0.048, 0.999, 8342.334, 7199.371)" stroke="#8c9091" stroke-miterlimit="10" stroke-width="1"><ellipse cx="0.433" cy="0.887" rx="0.433" ry="0.887" stroke="none"/><ellipse cx="0.433" cy="0.887" rx="0.067" ry="0.387" fill="none"/></g><path d="M8341.261,7319.3h.3c.073,0,.142.063.175.165a3.125,3.125,0,0,0,1.154,1.174" fill="none" stroke="#3d3d3d" stroke-miterlimit="10" stroke-width="0.75"/><path d="M8352.388,7199.374l-.857-.227a.224.224,0,0,0-.208.047,1.137,1.137,0,0,0-.286.8c-.011.5.029.666.331.762" fill="#fff" stroke="#fff" stroke-miterlimit="10" stroke-width="1.497"/><path d="M8351.684,7212.685l-.359-.1c-.316-.12-.316-.12-.353-.37l-.759-5.274a2.746,2.746,0,0,1-.027-.382l0-2.067a2.6,2.6,0,0,1,.055-.533l.448-2.993c.042-.279.192-.485.376-.512l.109-.029a.2.2,0,0,1,.095,0l.626.133" fill="#fff" stroke="#fff" stroke-miterlimit="10" stroke-width="1.497"/><path d="M8351.929,7200.263l-.288.031a.45.45,0,0,0-.375.375l-.448,2.2a1.432,1.432,0,0,0-.055.392l0,1.52a1.432,1.432,0,0,0,.027.281l.759,3.876a.314.314,0,0,0,.353.273l.744-.143a.729.729,0,0,0,.556-.638l.578-4.03a2.947,2.947,0,0,0,.028-.4l0-1.325a1.022,1.022,0,0,0-.038-.288l-.562-2.059a.221.221,0,0,0-.229-.174l-.21.023" fill="#e5e5e5"/><path d="M8348.979,7322.546l.239,1.012c.046.2-.028.412-.16.458l-.1.033a1.387,1.387,0,0,1-.934,0l-.092-.033a.4.4,0,0,1-.155-.465l.287-1.129" fill="none" stroke="#3d3d3d" stroke-miterlimit="10" stroke-width="1.497"/><path d="M8353.9,7319.519l.179.759c.046.2-.029.412-.16.457l-.1.034a1.129,1.129,0,0,1-.781,0" fill="#fff" stroke="#3d3d3d" stroke-miterlimit="10" stroke-width="1.497"/><path d="M8352.854,7319.951l.3,1.278c.046.2-.029.412-.16.457l-.1.034a8.483,8.483,0,0,1-.931.055" fill="#fff" stroke="#3d3d3d" stroke-miterlimit="10" stroke-width="1.497"/><path d="M8350.647,7323.942a1.383,1.383,0,0,1-.538-.081l-.091-.032c-.133-.047-.207-.268-.156-.465l.164-.646" fill="#fff" stroke="#3d3d3d" stroke-miterlimit="10" stroke-width="1.497"/><path d="M8349.151,7323.277a1.59,1.59,0,0,0,.548.083" fill="#fff" stroke="#3d3d3d" stroke-miterlimit="10" stroke-width="1.497"/><path d="M8352.346,7200.519l-.151.414c.02.182.354.207.559.249l2.2.449a1.43,1.43,0,0,0,.392.054l1.521,0a1.468,1.468,0,0,0,.281-.027l3.877-.759a.313.313,0,0,0,.271-.352l-.142-.745a.734.734,0,0,0-.64-.556l-4.028-.577a2.9,2.9,0,0,0-.405-.029l-1.326,0a1.067,1.067,0,0,0-.288.039l-2.058.562a.219.219,0,0,0-.175.228l.022.21" fill="#8c9091"/><path d="M8352.812,7320.093" fill="#fff" stroke="#fff" stroke-miterlimit="10" stroke-width="0.75"/><path d="M8353.382,7303.9l-.243,3.06a54.47,54.47,0,0,0-.317,5.817" fill="#fff" stroke="#fff" stroke-miterlimit="10" stroke-width="0.75"/><g transform="matrix(0.049, -0.999, 0.999, 0.049, 8351.907, 7201.056)" stroke="#8c9091" stroke-miterlimit="10" stroke-width="1"><ellipse cx="0.887" cy="0.433" rx="0.887" ry="0.433" stroke="none"/><ellipse cx="0.887" cy="0.433" rx="0.387" ry="0.067" fill="none"/></g><path d="M8354.477,7319.206l-.73.192a.3.3,0,0,0-.177-.065l.524-.974a11.35,11.35,0,0,0-.869,1.139,10.731,10.731,0,0,1-1.992,1.884" fill="none" stroke="#3d3d3d" stroke-miterlimit="10" stroke-width="0.75"/><path d="M8345.235,7322.209l.884.2a6.8,6.8,0,0,0,1.292.13,6.716,6.716,0,0,0,1.292-.123l.742-.156" fill="#fff" stroke="#3d3d3d" stroke-miterlimit="10" stroke-width="0.75"/><path d="M8344.621,7308.062l-2.049,12.8a2.787,2.787,0,0,0-.036.452l0,3.8c0,.384.218.695.488.7h.148a.467.467,0,0,0,.4-.287l1.342-2.622a2.114,2.114,0,0,1,.752-.854h0a.168.168,0,0,0,.065-.143l.013-8.686a13.543,13.543,0,0,0-.086-1.531l-.411-3.6C8345.186,7307.6,8344.7,7307.582,8344.621,7308.062Z" fill="#8c9091"/><path d="M8350.152,7308.108l2.016,12.811a2.91,2.91,0,0,1,.035.452l0,3.8c0,.384-.222.7-.492.694h-.148a.468.468,0,0,1-.4-.289l-1.335-2.629a2.128,2.128,0,0,0-.749-.858h0a.167.167,0,0,1-.067-.144l.013-8.686a13.315,13.315,0,0,1,.09-1.53l.42-3.6C8349.589,7307.647,8350.076,7307.628,8350.152,7308.108Z" fill="#8c9091"/><path d="M8341.476,7319.8" fill="none" stroke="#fff" stroke-miterlimit="10" stroke-width="0.75"/><line x2="0.658" y2="2.961" transform="translate(8341.063 7304.572)" fill="none" stroke="#fff" stroke-miterlimit="10" stroke-width="0.75"/><line x2="13.841" transform="translate(8340.662 7199.781)" stroke="#8c9091" stroke-miterlimit="10" stroke-width="1"/><path d="M8340.739,7319.917a2.31,2.31,0,0,1,.921-.853h0a.16.16,0,0,0,.081-.144l.011-8.686a11.123,11.123,0,0,0-.105-1.53l-.506-3.6a.38.38,0,0,0-.759-.028l-2.506,12.8a2.338,2.338,0,0,0-.044.452l0,3.8a.652.652,0,0,0,.6.7h.182a.577.577,0,0,0,.486-.287" fill="#8c9091"/><path d="M8354.172,7319.908a2.323,2.323,0,0,0-.92-.853h0a.159.159,0,0,1-.082-.143l-.01-8.687a10.979,10.979,0,0,1,.105-1.53l.5-3.6a.381.381,0,0,1,.761-.028l2.5,12.8a2.319,2.319,0,0,1,.044.451l0,3.8a.654.654,0,0,1-.6.7h-.182a.578.578,0,0,1-.487-.287" fill="#8c9091"/></g><g transform="translate(-7962 -6327)"><line x2="126.369" transform="translate(8376.154 7231.811)" fill="none" stroke="#fff" stroke-miterlimit="10" stroke-width="0.524" stroke-dasharray="2.095"/><path d="M8205.7,6992.368c83.172-68.319,195.334-126.517,217.22-54.406,17.7,58.325-74.26,99.931-74.26,231.71" fill="none" stroke="#fff" stroke-linecap="round" stroke-miterlimit="10" stroke-width="1.6" stroke-dasharray="0 6"/><path d="M8534.5,6963.456c0-80.856-22.144-228.637,38.72-283.975" fill="none" stroke="#fff" stroke-linecap="round" stroke-miterlimit="10" stroke-width="1.6" stroke-dasharray="0 6"/><path d="M8690.045,6606.566c116.525-59.6,211.628-8.426,197.353,100.968-14.136,108.314-212.9,206.508-212.9,478.041" fill="none" stroke="#fff" stroke-linecap="round" stroke-miterlimit="10" stroke-width="1.6" stroke-dasharray="0 6"/><line x2="988.969" transform="translate(8030.65 7325.167)" fill="none" stroke="#fff" stroke-miterlimit="10" stroke-width="1.047"/><text transform="translate(8359.412 7365.263)" fill="#fff" font-size="48.877" font-family="D-DIN-Bold, DIN Pro" font-weight="700" opacity="0.87"><tspan x="88.773" y="51">EARTH</tspan></text><path d="M9045.6,6501.682" fill="none" stroke="#fff" stroke-linecap="round" stroke-miterlimit="10" stroke-width="1.5"/><path d="M8657.191,6555.788c56.326-23.743,77.533-32.61,176.526-55.839" fill="none" stroke="#fff" stroke-linecap="round" stroke-miterlimit="10" stroke-width="1.5"/><path d="M8205.7,6992.368c30.731-140.911,194.9-296.653,324.629-365.846" fill="none" stroke="#fff" stroke-linecap="round" stroke-miterlimit="10" stroke-width="1.5"/><line y2="15.877" transform="translate(8219.386 7125.199)" fill="none" stroke="#fff" stroke-miterlimit="10" stroke-width="0.343" stroke-dasharray="0.466"/><line y2="15.877" transform="translate(8189.927 7125.209)" fill="none" stroke="#fff" stroke-miterlimit="10" stroke-width="0.343" stroke-dasharray="0.466"/><path d="M8319.735,7196.394h0a8.384,8.384,0,0,0,8.384,8.384h2.093" fill="none" stroke="#fff" stroke-miterlimit="10" stroke-width="0.524" stroke-dasharray="0.347" opacity="0.5"/><path d="M8373.124,7196.356h0a8.384,8.384,0,0,1-8.384,8.384h-2.092" fill="none" stroke="#fff" stroke-miterlimit="10" stroke-width="0.524" stroke-dasharray="0.347" opacity="0.5"/><line y2="30.081" transform="translate(8536.508 7089.845)" fill="none" stroke="#fff" stroke-miterlimit="10" stroke-width="0.383" stroke-dasharray="0.821"/><line y2="18.395" transform="translate(8542.452 7089.364)" fill="none" stroke="#fff" stroke-miterlimit="10" stroke-width="0.383" stroke-dasharray="0.821"/><line y2="18.395" transform="translate(8530.563 7089.364)" fill="none" stroke="#fff" stroke-miterlimit="10" stroke-width="0.383" stroke-dasharray="0.821"/><g opacity="0.4"><path d="M8549.144,7300.433l-5.235-36.56h-14.826l-5.235,36.561c4.118-.335,8.344-.519,12.658-.519S8545.032,7300.1,8549.144,7300.433Z" fill="#fff"/><path d="M8532.111,7293.352c-.729.126-1.448.283-2.153.475l.751,13.69Z" fill="#fff"/><path d="M8531.015,7313.105l.355,6.478h9.6l.354-6.431Z" fill="#fff"/><path d="M8513.191,7310.237a9.164,9.164,0,0,1,1.614-.153,9.5,9.5,0,0,1,9.37,9.5h.062l1.319-24.067A24.61,24.61,0,0,0,8513.191,7310.237Z" fill="#fff"/><path d="M8542.387,7293.842q-1.085-.3-2.211-.492l1.44,14.538Z" fill="#fff"/><path d="M8557.488,7310.084a9.153,9.153,0,0,1,1.613.153,24.607,24.607,0,0,0-12.312-14.693l1.319,24.039h.009A9.5,9.5,0,0,1,8557.488,7310.084Z" fill="#fff"/><path d="M8531.015,7313.106l10.313.046.288-5.264-1.44-14.538a23.268,23.268,0,0,0-8.064,0l-1.4,14.165Z" fill="#fff"/><path d="M8530.155,7313.1l.554-5.585-.751-13.69a23.561,23.561,0,0,0-4.4,1.689l-1.319,24.067h7.133l-.355-6.477Z" fill="#fff"/><path d="M8530.155,7313.1l.859,0-.306-5.588Z" fill="#fff"/><path d="M8542.387,7293.842l-.771,14.046.521,5.268-.81,0-.354,6.431h7.135l-1.319-24.039A23.547,23.547,0,0,0,8542.387,7293.842Z" fill="#fff"/><path d="M8542.139,7313.156l-.522-5.268-.288,5.264Z" fill="#fff"/><path d="M8513.191,7310.237a9.164,9.164,0,0,0-2.883,1.026,13.468,13.468,0,0,1,1.948,3.382A25.235,25.235,0,0,1,8513.191,7310.237Z" fill="#fff"/><path d="M8514.806,7310.084a9.164,9.164,0,0,0-1.614.153,25.235,25.235,0,0,0-.935,4.408,13.632,13.632,0,0,1,.964,4.938h10.955A9.5,9.5,0,0,0,8514.806,7310.084Z" fill="#fff"/><path d="M8510.309,7311.263a12.919,12.919,0,0,0-10.157-4.978,13.1,13.1,0,0,0-12.3,8.909,9.283,9.283,0,0,1,5.609,4.389h11.978A9.66,9.66,0,0,1,8510.309,7311.263Z" fill="#fff"/><path d="M8512.257,7314.645a13.468,13.468,0,0,0-1.948-3.382,9.66,9.66,0,0,0-4.873,8.32h6.7c-.045-.616-.074-1.235-.074-1.862A25.58,25.58,0,0,1,8512.257,7314.645Z" fill="#fff"/><path d="M8512.065,7317.721c0,.627.029,1.246.074,1.862h1.081a13.632,13.632,0,0,0-.964-4.938A25.58,25.58,0,0,0,8512.065,7317.721Z" fill="#fff"/><path d="M8561.984,7311.263a9.164,9.164,0,0,0-2.883-1.026,25.058,25.058,0,0,1,.935,4.408A13.528,13.528,0,0,1,8561.984,7311.263Z" fill="#fff"/><path d="M8559.1,7310.237a9.153,9.153,0,0,0-1.613-.153,9.5,9.5,0,0,0-9.37,9.5h10.954a13.673,13.673,0,0,1,.964-4.938A25.058,25.058,0,0,0,8559.1,7310.237Z" fill="#fff"/><path d="M8584.445,7315.194a13.1,13.1,0,0,0-12.3-8.909,12.922,12.922,0,0,0-10.158,4.978,9.658,9.658,0,0,1,4.873,8.32h11.979A9.28,9.28,0,0,1,8584.445,7315.194Z" fill="#fff"/><path d="M8561.984,7311.263a13.528,13.528,0,0,0-1.948,3.382,25.554,25.554,0,0,1,.192,3.076c0,.627-.03,1.246-.074,1.862h6.7A9.658,9.658,0,0,0,8561.984,7311.263Z" fill="#fff"/><path d="M8560.036,7314.645a13.673,13.673,0,0,0-.964,4.938h1.082c.044-.616.074-1.235.074-1.862A25.554,25.554,0,0,0,8560.036,7314.645Z" fill="#fff"/><path d="M8586.817,7314.867a8.98,8.98,0,0,0-2.372.327,13.692,13.692,0,0,1,.768,4.389h9.586A9.193,9.193,0,0,0,8586.817,7314.867Z" fill="#fff"/><path d="M8578.836,7319.583h6.377a13.692,13.692,0,0,0-.768-4.389A9.28,9.28,0,0,0,8578.836,7319.583Z" fill="#fff"/><path d="M8485.476,7314.867a9.191,9.191,0,0,0-7.98,4.716h9.586a13.692,13.692,0,0,1,.768-4.389A8.982,8.982,0,0,0,8485.476,7314.867Z" fill="#fff"/><path d="M8487.849,7315.194a13.692,13.692,0,0,0-.768,4.389h6.377A9.283,9.283,0,0,0,8487.849,7315.194Z" fill="#fff"/></g><g opacity="0.4"><path d="M8217.36,7300.433l-5.236-36.56H8197.3l-5.233,36.561c4.117-.335,8.342-.519,12.657-.519S8213.249,7300.1,8217.36,7300.433Z" fill="#fff"/><path d="M8200.328,7293.352c-.729.126-1.448.283-2.154.475l.751,13.69Z" fill="#fff"/><path d="M8199.231,7313.105l.355,6.478h9.6l.353-6.431Z" fill="#fff"/><path d="M8181.408,7310.237a9.174,9.174,0,0,1,1.615-.153,9.495,9.495,0,0,1,9.369,9.5h.062l1.32-24.067A24.6,24.6,0,0,0,8181.408,7310.237Z" fill="#fff"/><path d="M8210.6,7293.842q-1.085-.3-2.21-.492l1.44,14.538Z" fill="#fff"/><path d="M8225.7,7310.084a9.184,9.184,0,0,1,1.615.153,24.613,24.613,0,0,0-12.313-14.693l1.319,24.039h.009A9.5,9.5,0,0,1,8225.7,7310.084Z" fill="#fff"/><path d="M8199.231,7313.106l10.313.046.289-5.264-1.44-14.538a23.268,23.268,0,0,0-8.064,0l-1.4,14.165Z" fill="#fff"/><path d="M8198.372,7313.1l.553-5.585-.751-13.69a23.578,23.578,0,0,0-4.4,1.689l-1.32,24.067h7.134l-.355-6.477Z" fill="#fff"/><path d="M8198.372,7313.1l.859,0-.307-5.588Z" fill="#fff"/><path d="M8210.6,7293.842l-.77,14.046.522,5.268-.812,0-.352,6.431h7.133l-1.319-24.039A23.469,23.469,0,0,0,8210.6,7293.842Z" fill="#fff"/><path d="M8210.354,7313.156l-.521-5.268-.289,5.264Z" fill="#fff"/><path d="M8181.408,7310.237a9.157,9.157,0,0,0-2.882,1.026,13.483,13.483,0,0,1,1.948,3.382A25.146,25.146,0,0,1,8181.408,7310.237Z" fill="#fff"/><path d="M8183.023,7310.084a9.174,9.174,0,0,0-1.615.153,25.146,25.146,0,0,0-.934,4.408,13.694,13.694,0,0,1,.964,4.938h10.954A9.495,9.495,0,0,0,8183.023,7310.084Z" fill="#fff"/><path d="M8178.526,7311.263a12.923,12.923,0,0,0-10.159-4.978,13.1,13.1,0,0,0-12.3,8.909,9.283,9.283,0,0,1,5.61,4.389h11.978A9.657,9.657,0,0,1,8178.526,7311.263Z" fill="#fff"/><path d="M8180.474,7314.645a13.483,13.483,0,0,0-1.948-3.382,9.657,9.657,0,0,0-4.873,8.32h6.7c-.045-.616-.075-1.235-.075-1.862A25.579,25.579,0,0,1,8180.474,7314.645Z" fill="#fff"/><path d="M8180.282,7317.721c0,.627.03,1.246.075,1.862h1.081a13.694,13.694,0,0,0-.964-4.938A25.579,25.579,0,0,0,8180.282,7317.721Z" fill="#fff"/><path d="M8230.2,7311.263a9.158,9.158,0,0,0-2.882-1.026,25.234,25.234,0,0,1,.934,4.408A13.5,13.5,0,0,1,8230.2,7311.263Z" fill="#fff"/><path d="M8227.319,7310.237a9.184,9.184,0,0,0-1.615-.153,9.5,9.5,0,0,0-9.37,9.5h10.955a13.673,13.673,0,0,1,.964-4.938A25.234,25.234,0,0,0,8227.319,7310.237Z" fill="#fff"/><path d="M8252.661,7315.194a13.1,13.1,0,0,0-12.3-8.909,12.919,12.919,0,0,0-10.158,4.978,9.658,9.658,0,0,1,4.873,8.32h11.978A9.286,9.286,0,0,1,8252.661,7315.194Z" fill="#fff"/><path d="M8230.2,7311.263a13.5,13.5,0,0,0-1.948,3.382,25.554,25.554,0,0,1,.192,3.076c0,.627-.03,1.246-.075,1.862h6.7A9.658,9.658,0,0,0,8230.2,7311.263Z" fill="#fff"/><path d="M8228.253,7314.645a13.673,13.673,0,0,0-.964,4.938h1.081c.045-.616.075-1.235.075-1.862A25.554,25.554,0,0,0,8228.253,7314.645Z" fill="#fff"/><path d="M8255.034,7314.867a8.987,8.987,0,0,0-2.373.327,13.693,13.693,0,0,1,.769,4.389h9.586A9.193,9.193,0,0,0,8255.034,7314.867Z" fill="#fff"/><path d="M8247.052,7319.583h6.378a13.693,13.693,0,0,0-.769-4.389A9.286,9.286,0,0,0,8247.052,7319.583Z" fill="#fff"/><path d="M8153.693,7314.867a9.2,9.2,0,0,0-7.982,4.716h9.586a13.692,13.692,0,0,1,.768-4.389A8.974,8.974,0,0,0,8153.693,7314.867Z" fill="#fff"/><path d="M8156.065,7315.194a13.692,13.692,0,0,0-.768,4.389h6.378A9.283,9.283,0,0,0,8156.065,7315.194Z" fill="#fff"/></g><line x2="12.342" y2="22.667" transform="translate(8598.292 6610.129)" fill="none" stroke="#fff" stroke-miterlimit="10" stroke-width="1.5" stroke-dasharray="1.047"/><line x1="12.342" y1="22.667" transform="translate(8610.977 6603.924)" fill="none" stroke="#fff" stroke-miterlimit="10" stroke-width="1.5" stroke-dasharray="1.047"/><path d="M8200.236,7120.015a8.494,8.494,0,0,1-1.992-.691c-.119-.083-.347.1-.478.1h-1.4c-.143,0-.256-.183-.256-.409h0l-4.515-1.345a.317.317,0,0,1-.165-.316v-8.933a3.1,3.1,0,0,1,.09-.746l4.085-14.4q.447-1.788.769-3.646l1.063-6.118a26.881,26.881,0,0,0,.188-3.186v-38.01l-4.437-1.888v-5.074a1.8,1.8,0,0,1,.146-.729l9.25-16.666.7-1.546c.4-.891,1.23-.891,1.632,0l.7,1.546,9.25,16.666a1.8,1.8,0,0,1,.146.729v5.074l-4.437,1.888v38.01a26.881,26.881,0,0,0,.188,3.186l1.063,6.118q.322,1.854.769,3.646l4.085,14.4a3.078,3.078,0,0,1,.09.746v8.933a.316.316,0,0,1-.165.316l-4.515,1.345h0c0,.226-.114.409-.256.409h-1.4c-.13,0-.276-.187-.4-.1-.292.2-2.488-.6-3.7-.282" fill="#8c9091"/><path d="M8207.239,7120.48l-6.459-.081-3.013-1.048-.269-1.315V7034.66s.4-3.542.846-5.373c.825-3.371,4.2-12.086,4.2-12.086l1.18-1.073,1.654,1.4a63.472,63.472,0,0,1,4.88,12.447l.483,3.743-.685,79.385-.067,6.175Z" fill="#fff"/><path d="M8206.7,7120.279a18.52,18.52,0,0,1-2.544.174,17.348,17.348,0,0,1-2.7-.322" fill="none" stroke="#fff" stroke-miterlimit="10" stroke-width="1"/><path d="M8204.608,7016.292l3.445,8.815,1.843,5.53.214,87.124.147,1.667v-78.872c0-7.1-.289-8.191-2.581-16.418-1.412-5.07-2.48-7.066-3.068-7.846a.586.586,0,0,0-1.017,0c-.588.78-1.657,2.776-3.068,7.846-2.292,8.227-2.581,9.318-2.581,16.418v78.872" fill="none" stroke="#fff" stroke-miterlimit="10" stroke-width="1"/><path d="M8207.9,7120.3v-6.074a37.957,37.957,0,0,0-.222-4.1l-.273-3.135c-.033-.385-.239-.671-.482-.671h0c-.17,0-.309.222-.309.5v13.453a.2.2,0,0,0,.1.193h0a2.3,2.3,0,0,0,1.036.1h0C8207.833,7120.552,8207.9,7120.437,8207.9,7120.3Z" fill="#8c9091" stroke="#8c9091" stroke-miterlimit="10" stroke-width="1"/><path d="M8200.3,7120.3v-6.074a37.957,37.957,0,0,1,.222-4.1l.273-3.135c.033-.385.239-.671.482-.671h0c.171,0,.309.222.309.5v13.453a.2.2,0,0,1-.1.193h0a2.3,2.3,0,0,1-1.036.1h0C8200.367,7120.552,8200.3,7120.437,8200.3,7120.3Z" fill="#8c9091" stroke="#8c9091" stroke-miterlimit="10" stroke-width="1"/><path d="M8204.284,7028.572h-3.7c-.224,0-.467-.362-.344-.71.319-.9.21-.729,1.47-4.143,2.05-5.557,2.474-4.861,2.474-4.861s.692-.719,2.681,4.861c1.244,3.491,1.117,3.2,1.47,4.143.128.346-.12.71-.344.71Z" fill="#8c9091"/><path d="M8204.18,7030.776h4.344a.289.289,0,0,1,.256.167l.078.164a.307.307,0,0,1-.256.448h-4.422" fill="#8c9091"/><path d="M8204.16,7033.388h5.037a.343.343,0,0,1,.3.156l.091.152c.114.191-.047.418-.3.418h-5.128" fill="#8c9091"/><path d="M8204.1,7035.894h5.036a.343.343,0,0,1,.3.156l.092.153c.113.19-.048.417-.3.417H8204.1" fill="#8c9091"/><path d="M8204.1,7038.5h5.036a.344.344,0,0,1,.3.155l.092.153c.113.191-.048.418-.3.418H8204.1" fill="#8c9091"/><path d="M8204.18,7030.776h-4.343a.287.287,0,0,0-.256.167l-.078.164a.307.307,0,0,0,.255.448h4.422" fill="#8c9091"/><path d="M8204.16,7033.388h-5.036a.341.341,0,0,0-.3.156l-.091.152c-.114.191.047.418.3.418h5.127" fill="#8c9091"/><path d="M8204.1,7035.894h-5.035a.347.347,0,0,0-.3.156l-.091.153c-.114.19.047.417.3.417h5.127" fill="#8c9091"/><path d="M8204.1,7038.5h-5.035a.349.349,0,0,0-.3.155l-.091.153c-.114.191.047.418.3.418h5.127" fill="#8c9091"/><path d="M8211.031,7263.5l-2.9,6.23-9.47-2.42.846-3.81-1.315-122.273,13-.161Z" fill="#fff"/><path d="M8194.643,7262.46" fill="#8c9091" stroke="#fff" stroke-miterlimit="10" stroke-width="1.497"/><line x1="0.176" y2="96.313" transform="translate(8198.475 7154.753)" fill="#8c9091" stroke="#fff" stroke-miterlimit="10" stroke-width="1.497"/><path d="M8198.644,7154.914l.014-17.027c0-.189.1-.342.219-.341l11.441.033c.121,0,.219.154.219.342l-.148,17.2" fill="#fff" stroke="#fff" stroke-miterlimit="10" stroke-width="1.497"/><path d="M8199.766,7145.624l.856-.221a.224.224,0,0,1,.208.048,1.143,1.143,0,0,1,.284.8c.009.493-.031.664-.332.758" fill="#fff" stroke="#fff" stroke-miterlimit="10" stroke-width="1.497"/><path d="M8200.436,7158.919l.36-.1c.316-.119.316-.119.353-.368l.77-5.26a2.614,2.614,0,0,0,.028-.382l0-2.064a2.617,2.617,0,0,0-.055-.533l-.439-2.991c-.041-.278-.192-.485-.374-.512l-.11-.031a.217.217,0,0,0-.094,0l-.626.13" fill="#fff" stroke="#fff" stroke-miterlimit="10" stroke-width="1.497"/><path d="M8202.874,7268.621l-.241,1.009a.4.4,0,0,0,.159.458l.1.034a1.39,1.39,0,0,0,.933,0l.091-.031c.132-.046.207-.266.157-.464l-.284-1.129" fill="none" stroke="#3d3d3d" stroke-miterlimit="10" stroke-width="1.497"/><path d="M8197.87,7265.607c-.047.2-.057,1.13.073,1.177l.1.034c.307.108.443-1.059.759-1.136" fill="none" stroke="#3d3d3d" stroke-miterlimit="10" stroke-width="1.497"/><path d="M8197.965,7265.57" fill="#fff" stroke="#fff" stroke-miterlimit="10" stroke-width="1.497"/><path d="M8199.417,7266.515l-.409.739a.4.4,0,0,0,.158.457l.1.034a1.392,1.392,0,0,0,.365.078" fill="#fff" stroke="#3d3d3d" stroke-miterlimit="10" stroke-width="1.497"/><path d="M8201.03,7269.9a1.381,1.381,0,0,0,.537-.078l.091-.031c.132-.046.207-.266.158-.464l-.163-.646" fill="#fff" stroke="#3d3d3d" stroke-miterlimit="10" stroke-width="1.497"/><path d="M8204.084,7269.5a1.157,1.157,0,0,0,.355.08,1.183,1.183,0,0,0,.354-.078" fill="#fff" stroke="#3d3d3d" stroke-miterlimit="10" stroke-width="1.497"/><path d="M8202.7,7269.349a1.575,1.575,0,0,1-.547.079" fill="#fff" stroke="#3d3d3d" stroke-miterlimit="10" stroke-width="1.497"/><path d="M8198.644,7154.914l.456,97.964a58.323,58.323,0,0,1-.038,5.967l-.238,6.59" fill="#fff" stroke="#fff" stroke-miterlimit="10" stroke-width="1.497"/><path d="M8200.251,7146.761l.288.032a.452.452,0,0,1,.374.377l.439,2.2a1.432,1.432,0,0,1,.055.392l0,1.517a1.421,1.421,0,0,1-.028.28l-.77,3.868a.313.313,0,0,1-.353.27l-.744-.145a.73.73,0,0,1-.552-.64l-.564-4.026a2.937,2.937,0,0,1-.027-.4l0-1.323a1.054,1.054,0,0,1,.039-.288l.566-2.053a.22.22,0,0,1,.229-.173l.21.024" fill="#8c9091"/><g transform="matrix(0.999, -0.048, 0.048, 0.999, 8199.37, 7145.649)" stroke="#8c9091" stroke-miterlimit="10" stroke-width="1"><ellipse cx="0.432" cy="0.886" rx="0.432" ry="0.886" stroke="none"/><ellipse cx="0.432" cy="0.886" rx="0.068" ry="0.386" fill="none"/></g><path d="M8198.3,7265.386h.3c.073,0,.142.062.173.164a3.13,3.13,0,0,0,1.154,1.172" fill="none" stroke="#3d3d3d" stroke-miterlimit="10" stroke-width="0.75"/><path d="M8209.409,7145.653l-.856-.227a.225.225,0,0,0-.208.047,1.14,1.14,0,0,0-.286.8c-.011.494.029.665.33.761" fill="#fff" stroke="#fff" stroke-miterlimit="10" stroke-width="1.497"/><path d="M8208.706,7158.943l-.359-.1c-.315-.121-.315-.121-.352-.37l-.757-5.265a2.6,2.6,0,0,1-.027-.381l0-2.064a2.672,2.672,0,0,1,.055-.533l.448-2.988c.041-.279.192-.484.375-.511l.11-.029a.181.181,0,0,1,.093,0l.626.133" fill="#fff" stroke="#fff" stroke-miterlimit="10" stroke-width="1.497"/><path d="M8206,7268.63l.238,1.011c.047.2-.028.411-.159.456l-.1.034a1.384,1.384,0,0,1-.933,0l-.091-.032c-.132-.047-.206-.268-.156-.465l.286-1.127" fill="none" stroke="#3d3d3d" stroke-miterlimit="10" stroke-width="1.497"/><path d="M8210.921,7265.608l.179.757a.4.4,0,0,1-.159.457l-.1.033a1.126,1.126,0,0,1-.778,0" fill="#fff" stroke="#3d3d3d" stroke-miterlimit="10" stroke-width="1.497"/><path d="M8209.874,7266.039l.3,1.276c.047.2-.028.411-.159.456l-.1.034a8.433,8.433,0,0,1-.929.055" fill="#fff" stroke="#3d3d3d" stroke-miterlimit="10" stroke-width="1.497"/><path d="M8207.671,7270.024a1.4,1.4,0,0,1-.537-.081l-.091-.032c-.132-.047-.206-.268-.156-.465l.164-.645" fill="#fff" stroke="#3d3d3d" stroke-miterlimit="10" stroke-width="1.497"/><path d="M8206.177,7269.36a1.611,1.611,0,0,0,.547.082" fill="#fff" stroke="#3d3d3d" stroke-miterlimit="10" stroke-width="1.497"/><path d="M8208.92,7146.78l-.288.031a.45.45,0,0,0-.375.375l-.447,2.2a1.46,1.46,0,0,0-.055.391l0,1.518a1.342,1.342,0,0,0,.026.28l.758,3.871a.312.312,0,0,0,.351.271l.745-.141a.732.732,0,0,0,.554-.638l.577-4.023a2.805,2.805,0,0,0,.029-.4l0-1.324a1.093,1.093,0,0,0-.038-.287l-.561-2.056a.221.221,0,0,0-.229-.174l-.21.023" fill="#8c9091"/><path d="M8209.832,7266.18" fill="#fff" stroke="#fff" stroke-miterlimit="10" stroke-width="0.75"/><path d="M8210.4,7250.014l-.242,3.056a54.285,54.285,0,0,0-.318,5.807" fill="#fff" stroke="#fff" stroke-miterlimit="10" stroke-width="0.75"/><g transform="matrix(0.049, -0.999, 0.999, 0.049, 8208.852, 7147.404)" stroke="#8c9091" stroke-miterlimit="10" stroke-width="1"><ellipse cx="0.886" cy="0.432" rx="0.886" ry="0.432" stroke="none"/><ellipse cx="0.886" cy="0.432" rx="0.386" ry="0.068" fill="none"/></g><path d="M8211.494,7265.294l-.729.193a.285.285,0,0,0-.177-.065l.524-.973a11.377,11.377,0,0,0-.868,1.138,10.732,10.732,0,0,1-1.989,1.881" fill="none" stroke="#3d3d3d" stroke-miterlimit="10" stroke-width="0.75"/><path d="M8202.268,7268.293l.883.2a6.694,6.694,0,0,0,2.58.007l.739-.156" fill="#fff" stroke="#3d3d3d" stroke-miterlimit="10" stroke-width="0.75"/><path d="M8201.654,7254.168l-2.046,12.78a2.781,2.781,0,0,0-.036.452l0,3.794c0,.384.218.7.488.7h.147a.465.465,0,0,0,.4-.287l1.341-2.618a2.1,2.1,0,0,1,.75-.852h0a.171.171,0,0,0,.066-.143l.011-8.673a13.051,13.051,0,0,0-.086-1.528l-.409-3.593C8202.218,7253.711,8201.731,7253.689,8201.654,7254.168Z" fill="#8c9091"/><path d="M8207.176,7254.215l2.014,12.791a3.012,3.012,0,0,1,.034.451l0,3.795c0,.383-.22.693-.491.692h-.147a.469.469,0,0,1-.4-.289l-1.333-2.625a2.115,2.115,0,0,0-.748-.857h0a.164.164,0,0,1-.065-.143l.011-8.672a13.491,13.491,0,0,1,.09-1.528l.419-3.591C8206.614,7253.754,8207.1,7253.735,8207.176,7254.215Z" fill="#8c9091"/><path d="M8198.515,7265.891" fill="none" stroke="#fff" stroke-miterlimit="10" stroke-width="0.75"/><line x2="0.657" y2="2.956" transform="translate(8198.102 7250.685)" fill="none" stroke="#fff" stroke-miterlimit="10" stroke-width="0.75"/><line x2="13.82" transform="translate(8197.701 7146.059)" stroke="#8c9091" stroke-miterlimit="10" stroke-width="1"/><path d="M8197.779,7266a2.306,2.306,0,0,1,.918-.852h0a.158.158,0,0,0,.082-.143l.01-8.673a10.807,10.807,0,0,0-.105-1.528l-.5-3.593a.38.38,0,0,0-.759-.028l-2.5,12.779a2.336,2.336,0,0,0-.044.451l0,3.795a.654.654,0,0,0,.6.7h.182a.578.578,0,0,0,.486-.286" fill="#8c9091"/><path d="M8211.19,7266a2.335,2.335,0,0,0-.919-.852h0a.158.158,0,0,1-.081-.143l-.011-8.672a10.794,10.794,0,0,1,.105-1.528l.5-3.594a.38.38,0,0,1,.758-.028l2.5,12.78a2.321,2.321,0,0,1,.044.451l0,3.795a.652.652,0,0,1-.6.695h-.181a.577.577,0,0,1-.486-.286" fill="#8c9091"/><path d="M8548.712,6612.612a8.38,8.38,0,0,1-.383-2.073c.013-.145-.262-.251-.326-.364l-.689-1.214c-.07-.122.032-.312.229-.424h0l-1.061-4.59c-.022-.1.06-.223.194-.3l7.767-4.411a3.1,3.1,0,0,1,.693-.291l14.54-3.562q1.775-.494,3.55-1.132l5.845-2.1a26.689,26.689,0,0,0,2.862-1.409l33.052-18.775-.552-4.791,4.412-2.507a1.808,1.808,0,0,1,.706-.232l19.061-.189,1.688-.159c.974-.091,1.382.63.807,1.419l-1,1.368-9.923,16.275a1.783,1.783,0,0,1-.561.487l-4.412,2.507-3.833-2.927L8588.324,6602a26.933,26.933,0,0,0-2.677,1.737l-4.795,3.946q-1.453,1.2-2.789,2.469l-10.506,10.666a3.126,3.126,0,0,1-.6.447l-7.768,4.411a.318.318,0,0,1-.356.014l-3.4-3.262h0c-.2.112-.412.1-.481-.02l-.689-1.214c-.063-.113.026-.334-.105-.4-.321-.153-.707-2.46-1.583-3.359" fill="#8c9091"/><path d="M8551.767,6618.931l-3.12-5.657-.576-3.136,1.011-.883,72.5-41.181s3.275-1.405,5.09-1.92c3.339-.947,12.582-2.318,12.582-2.318l1.517.5-.4,2.127a63.541,63.541,0,0,1-8.412,10.391l-3.016,2.269-69.363,38.615-5.4,2.992Z" fill="#fff"/><path d="M8551.674,6618.36a18.51,18.51,0,0,1-1.408-2.125,17.4,17.4,0,0,1-1.052-2.5" fill="none" stroke="#fff" stroke-miterlimit="10" stroke-width="1"/><path d="M8641.059,6565.183l-5.962,7.35-3.9,4.332-75.648,43.22-1.377.951,68.579-38.957c6.174-3.507,6.98-4.3,13-10.353,3.711-3.732,4.918-5.648,5.306-6.543a.587.587,0,0,0-.5-.885c-.968-.125-3.23-.069-8.337,1.207-8.286,2.071-9.377,2.359-15.55,5.866l-68.58,38.957" fill="none" stroke="#fff" stroke-miterlimit="10" stroke-width="1"/><path d="M8552.25,6619.415l5.281-3a38.308,38.308,0,0,0,3.456-2.217l2.591-1.787c.318-.219.465-.539.345-.75h0c-.085-.148-.346-.159-.583-.024l-11.7,6.644a.2.2,0,0,0-.118.181h0a2.282,2.282,0,0,0,.422.951h0C8552,6619.483,8552.13,6619.483,8552.25,6619.415Z" fill="#8c9091" stroke="#8c9091" stroke-miterlimit="10" stroke-width="1"/><path d="M8548.5,6612.809l5.282-3a37.756,37.756,0,0,1,3.674-1.833l2.861-1.311c.351-.16.7-.123.82.088h0c.084.149-.04.379-.277.514l-11.7,6.644a.2.2,0,0,1-.217.01h0a2.281,2.281,0,0,1-.6-.849h0C8548.31,6612.992,8548.377,6612.877,8548.5,6612.809Z" fill="#8c9091" stroke="#8c9091" stroke-miterlimit="10" stroke-width="1"/><path d="M8630.221,6570.966l-1.829-3.22c-.11-.2.085-.585.448-.65.943-.168.738-.177,4.328-.768,5.845-.962,5.448-.25,5.448-.25s.968.247-2.9,4.732c-2.421,2.805-2.227,2.55-2.876,3.324a.526.526,0,0,1-.788.052Z" fill="#8c9091"/><path d="M8628.253,6571.964l2.146,3.776a.287.287,0,0,1-.02.3l-.1.149a.308.308,0,0,1-.517,0l-2.184-3.845" fill="#8c9091"/><path d="M8625.972,6573.237l2.488,4.379a.34.34,0,0,1,.011.335l-.088.154a.29.29,0,0,1-.509-.051l-2.533-4.458" fill="#8c9091"/><path d="M8623.763,6574.422l2.488,4.38a.339.339,0,0,1,.011.334l-.088.155a.29.29,0,0,1-.509-.052l-2.533-4.458" fill="#8c9091"/><path d="M8621.5,6575.708l2.487,4.379a.343.343,0,0,1,.011.334l-.087.155a.29.29,0,0,1-.51-.051l-2.533-4.458" fill="#8c9091"/><path d="M8628.253,6571.964l-2.145-3.776a.287.287,0,0,0-.271-.14l-.181.012a.308.308,0,0,0-.265.444l2.185,3.845" fill="#8c9091"/><path d="M8625.972,6573.237l-2.486-4.379a.345.345,0,0,0-.282-.181l-.178,0a.291.291,0,0,0-.217.464l2.532,4.459" fill="#8c9091"/><path d="M8623.763,6574.422l-2.486-4.379a.344.344,0,0,0-.282-.18l-.177,0a.29.29,0,0,0-.218.464l2.532,4.458" fill="#8c9091"/><path d="M8621.5,6575.708l-2.488-4.379a.343.343,0,0,0-.281-.181l-.178,0a.29.29,0,0,0-.217.464l2.532,4.459" fill="#8c9091"/><path d="M8583.764,6663.963a7.775,7.775,0,0,1-.379-1.972c.015-.138-.258-.238-.32-.346l-.682-1.154c-.068-.117.033-.3.227-.4h0l-1.046-4.364c-.022-.092.058-.212.19-.285l7.663-4.195a3.109,3.109,0,0,1,.685-.276l14.347-3.387q1.752-.471,3.5-1.076l5.766-2a27.176,27.176,0,0,0,2.825-1.34l32.61-17.853-.544-4.555,4.353-2.384a1.812,1.812,0,0,1,.7-.22l18.806-.18,1.665-.151c.96-.087,1.364.6.795,1.349l-.987,1.3-9.79,15.476a1.745,1.745,0,0,1-.554.463l-4.353,2.383-3.782-2.782-32.61,17.852a26.555,26.555,0,0,0-2.642,1.652l-4.73,3.751q-1.434,1.138-2.753,2.349l-10.364,10.141a3.068,3.068,0,0,1-.6.425l-7.663,4.195a.322.322,0,0,1-.352.012l-3.354-3.1h0c-.192.106-.405.1-.475-.019l-.68-1.154c-.064-.108.024-.318-.1-.377-.316-.146-.7-2.339-1.562-3.194" fill="#8c9091"/><path d="M8586.778,6669.971l-3.079-5.379-.569-2.982,1-.84,71.528-39.158s3.231-1.335,5.021-1.824c3.295-.9,12.415-2.205,12.415-2.205l1.5.472-.392,2.023a60.953,60.953,0,0,1-8.3,9.881l-2.977,2.157-68.437,36.718-5.33,2.844Z" fill="#fff"/><path d="M8586.686,6669.428a17.651,17.651,0,0,1-1.389-2.021,16.214,16.214,0,0,1-1.039-2.381" fill="none" stroke="#fff" stroke-miterlimit="10" stroke-width="1"/><path d="M8674.879,6618.864l-5.883,6.988-3.847,4.12-74.641,41.1-1.357.9,67.665-37.042c6.091-3.335,6.886-4.086,12.827-9.845,3.661-3.548,4.853-5.37,5.235-6.221a.557.557,0,0,0-.5-.841c-.955-.119-3.187-.066-8.226,1.147-8.175,1.969-9.252,2.243-15.343,5.578l-67.665,37.042" fill="none" stroke="#fff" stroke-miterlimit="10" stroke-width="1"/><path d="M8587.254,6670.431l5.211-2.853a37.877,37.877,0,0,0,3.41-2.108l2.556-1.7c.314-.208.459-.512.341-.713h0c-.083-.141-.341-.151-.575-.023l-11.541,6.318c-.08.044-.129.116-.118.172h0a2.17,2.17,0,0,0,.416.9h0C8587,6670.5,8587.136,6670.5,8587.254,6670.431Z" fill="#8c9091" stroke="#8c9091" stroke-miterlimit="10" stroke-width="1"/><path d="M8583.551,6664.15l5.212-2.853a38.233,38.233,0,0,1,3.625-1.743l2.823-1.246c.346-.153.691-.117.811.083h0c.082.142-.04.36-.274.488l-11.541,6.319a.2.2,0,0,1-.214.009h0a2.19,2.19,0,0,1-.593-.807h0C8583.367,6664.323,8583.433,6664.215,8583.551,6664.15Z" fill="#8c9091" stroke="#8c9091" stroke-miterlimit="10" stroke-width="1"/><path d="M8659.371,6626.863" fill="#8c9091"/><path d="M8659.994,6626.522" fill="#8c9091"/><path d="M8657.191,6627.99" fill="#8c9091"/><path d="M8543.259,7262.22l-2.9,6.229-9.47-2.419.845-3.81-1.314-122.273,13-.161Z" fill="#fff"/><path d="M8526.87,7261.177" fill="#8c9091" stroke="#fff" stroke-miterlimit="10" stroke-width="1.497"/><line x1="0.176" y2="96.313" transform="translate(8530.702 7153.47)" fill="#8c9091" stroke="#fff" stroke-miterlimit="10" stroke-width="1.497"/><path d="M8530.872,7153.631l.013-17.028c0-.189.1-.341.219-.341l11.441.034c.121,0,.218.153.218.342l-.147,17.194" fill="#fff" stroke="#fff" stroke-miterlimit="10" stroke-width="1.497"/><path d="M8531.993,7144.341l.856-.222a.221.221,0,0,1,.207.048,1.142,1.142,0,0,1,.285.805c.009.494-.032.664-.333.759" fill="#fff" stroke="#fff" stroke-miterlimit="10" stroke-width="1.497"/><path d="M8532.664,7157.635l.36-.1c.314-.119.314-.119.352-.368l.771-5.26a2.746,2.746,0,0,0,.027-.382l0-2.063a2.667,2.667,0,0,0-.053-.533l-.441-2.991c-.041-.279-.19-.485-.373-.513l-.11-.03a.187.187,0,0,0-.093,0l-.627.13" fill="#fff" stroke="#fff" stroke-miterlimit="10" stroke-width="1.497"/><path d="M8535.1,7267.337l-.24,1.009a.4.4,0,0,0,.157.458l.1.034a1.387,1.387,0,0,0,.932,0l.091-.032c.134-.046.207-.266.158-.464l-.284-1.129" fill="none" stroke="#3d3d3d" stroke-miterlimit="10" stroke-width="1.497"/><path d="M8530.1,7264.323c-.047.2-.058,1.131.073,1.177l.1.034c.308.109.443-1.059.76-1.135" fill="none" stroke="#3d3d3d" stroke-miterlimit="10" stroke-width="1.497"/><path d="M8530.193,7264.286" fill="#fff" stroke="#fff" stroke-miterlimit="10" stroke-width="1.497"/><path d="M8531.645,7265.231l-.408.739c-.047.2.026.411.157.457l.1.034a1.45,1.45,0,0,0,.366.079" fill="#fff" stroke="#3d3d3d" stroke-miterlimit="10" stroke-width="1.497"/><path d="M8533.258,7268.619a1.408,1.408,0,0,0,.537-.077l.09-.032c.133-.046.208-.266.158-.464l-.162-.646" fill="#fff" stroke="#3d3d3d" stroke-miterlimit="10" stroke-width="1.497"/><path d="M8536.311,7268.212a1.162,1.162,0,0,0,.355.08,1.13,1.13,0,0,0,.355-.078" fill="#fff" stroke="#3d3d3d" stroke-miterlimit="10" stroke-width="1.497"/><path d="M8534.928,7268.066a1.6,1.6,0,0,1-.547.079" fill="#fff" stroke="#3d3d3d" stroke-miterlimit="10" stroke-width="1.497"/><path d="M8530.872,7153.631l.455,97.963a58.335,58.335,0,0,1-.038,5.968l-.238,6.59" fill="#fff" stroke="#fff" stroke-miterlimit="10" stroke-width="1.497"/><path d="M8532.479,7145.477l.288.032a.452.452,0,0,1,.373.377l.441,2.2a1.471,1.471,0,0,1,.053.392l0,1.517a1.5,1.5,0,0,1-.028.281l-.77,3.867a.313.313,0,0,1-.353.27l-.744-.145a.733.733,0,0,1-.553-.64l-.562-4.026a2.794,2.794,0,0,1-.028-.4l0-1.323a1.083,1.083,0,0,1,.039-.287l.568-2.054a.22.22,0,0,1,.228-.173l.21.024" fill="#8c9091"/><g transform="matrix(0.999, -0.048, 0.048, 0.999, 8531.598, 7144.365)" stroke="#8c9091" stroke-miterlimit="10" stroke-width="1"><ellipse cx="0.432" cy="0.886" rx="0.432" ry="0.886" stroke="none"/><ellipse cx="0.432" cy="0.886" rx="0.068" ry="0.386" fill="none"/></g><path d="M8530.527,7264.1h.3c.073,0,.141.063.174.165a3.127,3.127,0,0,0,1.154,1.171" fill="none" stroke="#3d3d3d" stroke-miterlimit="10" stroke-width="0.75"/><path d="M8541.636,7144.369l-.855-.226a.223.223,0,0,0-.208.046,1.139,1.139,0,0,0-.286.8c-.01.494.03.665.33.761" fill="#fff" stroke="#fff" stroke-miterlimit="10" stroke-width="1.497"/><path d="M8540.934,7157.659l-.359-.1c-.316-.12-.316-.12-.352-.37l-.758-5.265a2.742,2.742,0,0,1-.026-.381l0-2.064a2.606,2.606,0,0,1,.054-.533l.448-2.988c.042-.278.192-.484.375-.51l.109-.03a.2.2,0,0,1,.095,0l.625.133" fill="#fff" stroke="#fff" stroke-miterlimit="10" stroke-width="1.497"/><path d="M8538.233,7267.346l.237,1.011c.046.2-.028.411-.159.456l-.1.034a1.384,1.384,0,0,1-.933,0l-.09-.032c-.134-.047-.207-.267-.157-.464l.287-1.128" fill="none" stroke="#3d3d3d" stroke-miterlimit="10" stroke-width="1.497"/><path d="M8543.149,7264.324l.178.757a.4.4,0,0,1-.159.457l-.1.033a1.126,1.126,0,0,1-.779,0" fill="#fff" stroke="#3d3d3d" stroke-miterlimit="10" stroke-width="1.497"/><path d="M8542.1,7264.755l.3,1.276c.046.2-.029.411-.16.456l-.1.034a8.523,8.523,0,0,1-.928.055" fill="#fff" stroke="#3d3d3d" stroke-miterlimit="10" stroke-width="1.497"/><path d="M8539.9,7268.74a1.388,1.388,0,0,1-.537-.081l-.09-.032c-.134-.047-.207-.267-.157-.464l.164-.645" fill="#fff" stroke="#3d3d3d" stroke-miterlimit="10" stroke-width="1.497"/><path d="M8538.405,7268.076a1.611,1.611,0,0,0,.547.082" fill="#fff" stroke="#3d3d3d" stroke-miterlimit="10" stroke-width="1.497"/><path d="M8541.147,7145.5l-.287.031a.449.449,0,0,0-.375.375l-.448,2.2a1.47,1.47,0,0,0-.055.392l0,1.517a1.5,1.5,0,0,0,.026.28l.757,3.871a.315.315,0,0,0,.353.272l.744-.142a.731.731,0,0,0,.555-.638l.576-4.023a2.944,2.944,0,0,0,.028-.4l0-1.324a1.1,1.1,0,0,0-.039-.287l-.562-2.056a.218.218,0,0,0-.227-.173l-.21.022" fill="#8c9091"/><path d="M8542.06,7264.9" fill="#fff" stroke="#fff" stroke-miterlimit="10" stroke-width="0.75"/><path d="M8542.629,7248.73l-.243,3.056a54.791,54.791,0,0,0-.317,5.807" fill="#fff" stroke="#fff" stroke-miterlimit="10" stroke-width="0.75"/><g transform="matrix(0.049, -0.999, 0.999, 0.049, 8541.079, 7146.121)" stroke="#8c9091" stroke-miterlimit="10" stroke-width="1"><ellipse cx="0.886" cy="0.432" rx="0.886" ry="0.432" stroke="none"/><ellipse cx="0.886" cy="0.432" rx="0.386" ry="0.068" fill="none"/></g><path d="M8543.722,7264.011l-.729.192a.3.3,0,0,0-.177-.065l.524-.973a11.187,11.187,0,0,0-.868,1.138,10.732,10.732,0,0,1-1.989,1.881" fill="none" stroke="#3d3d3d" stroke-miterlimit="10" stroke-width="0.75"/><path d="M8534.5,7267.009l.882.2a6.707,6.707,0,0,0,2.58.007l.741-.156" fill="#fff" stroke="#3d3d3d" stroke-miterlimit="10" stroke-width="0.75"/><path d="M8533.882,7252.885l-2.046,12.78a2.771,2.771,0,0,0-.036.451l0,3.795c0,.383.218.694.488.695h.147a.466.466,0,0,0,.4-.286l1.34-2.619a2.113,2.113,0,0,1,.751-.852h0a.168.168,0,0,0,.066-.143l.012-8.673a13.524,13.524,0,0,0-.086-1.528l-.41-3.593C8534.445,7252.427,8533.959,7252.406,8533.882,7252.885Z" fill="#8c9091"/><path d="M8539.4,7252.931l2.012,12.791a2.769,2.769,0,0,1,.035.451l0,3.795c0,.383-.221.693-.49.692h-.148a.468.468,0,0,1-.4-.289l-1.333-2.625a2.119,2.119,0,0,0-.748-.856h0a.17.17,0,0,1-.066-.144l.013-8.672a13.054,13.054,0,0,1,.089-1.528l.42-3.591C8538.842,7252.471,8539.328,7252.452,8539.4,7252.931Z" fill="#8c9091"/><path d="M8530.742,7264.608" fill="none" stroke="#fff" stroke-miterlimit="10" stroke-width="0.75"/><line x2="0.657" y2="2.956" transform="translate(8530.329 7249.401)" fill="none" stroke="#fff" stroke-miterlimit="10" stroke-width="0.75"/><line x2="13.82" transform="translate(8529.929 7144.775)" stroke="#8c9091" stroke-miterlimit="10" stroke-width="1"/><path d="M8530.006,7264.721a2.318,2.318,0,0,1,.919-.852h0a.16.16,0,0,0,.081-.143l.011-8.672a10.936,10.936,0,0,0-.105-1.528l-.5-3.594a.38.38,0,0,0-.758-.028l-2.5,12.78a2.319,2.319,0,0,0-.044.451l0,3.8a.653.653,0,0,0,.6.695h.181a.577.577,0,0,0,.486-.286" fill="#8c9091"/><path d="M8543.417,7264.712a2.32,2.32,0,0,0-.918-.852h0a.156.156,0,0,1-.082-.143l-.01-8.672a10.934,10.934,0,0,1,.105-1.528l.5-3.594a.38.38,0,0,1,.759-.027l2.5,12.779a2.407,2.407,0,0,1,.044.451l0,3.795a.654.654,0,0,1-.6.7h-.181a.578.578,0,0,1-.487-.287" fill="#8c9091"/><path d="M8532.117,7085.556a8.494,8.494,0,0,1-1.992-.691c-.119-.083-.347.1-.477.1h-1.4c-.141,0-.256-.183-.256-.409h0l-4.515-1.345a.317.317,0,0,1-.165-.317v-8.932a3.078,3.078,0,0,1,.09-.746l4.085-14.4q.447-1.788.769-3.646l1.063-6.118a26.881,26.881,0,0,0,.188-3.186v-38.011l-4.437-1.887V7000.9a1.8,1.8,0,0,1,.146-.729l9.25-16.666.7-1.546c.4-.891,1.23-.891,1.631,0l.7,1.546,9.25,16.666a1.8,1.8,0,0,1,.146.729v5.074l-4.437,1.887v38.011a26.881,26.881,0,0,0,.188,3.186l1.063,6.118q.322,1.854.769,3.646l4.085,14.4a3.078,3.078,0,0,1,.091.746v8.932a.317.317,0,0,1-.165.317l-4.516,1.345h0c0,.226-.114.409-.256.409h-1.4c-.131,0-.277-.187-.4-.1-.292.2-2.488-.6-3.7-.282" fill="#8c9091"/><path d="M8539.12,7086.02l-6.459-.08-3.012-1.048-.27-1.315V7000.2s.4-3.542.846-5.373c.825-3.371,4.2-12.086,4.2-12.086l1.181-1.073,1.653,1.4a63.472,63.472,0,0,1,4.88,12.447l.483,3.743-.684,79.385-.068,6.175Z" fill="#fff"/><path d="M8538.578,7085.82a18.52,18.52,0,0,1-2.544.174,17.348,17.348,0,0,1-2.7-.322" fill="none" stroke="#fff" stroke-miterlimit="10" stroke-width="1"/><path d="M8536.49,6981.833l3.444,8.815,1.843,5.53.214,87.124.147,1.667V7006.1c0-7.1-.288-8.191-2.58-16.418-1.412-5.07-2.481-7.066-3.068-7.846a.586.586,0,0,0-1.018,0c-.588.78-1.656,2.776-3.068,7.846-2.292,8.227-2.581,9.318-2.581,16.418v78.872" fill="none" stroke="#fff" stroke-miterlimit="10" stroke-width="1"/><path d="M8539.78,7085.84v-6.074a37.957,37.957,0,0,0-.222-4.1l-.273-3.135c-.033-.385-.239-.671-.482-.671h0c-.17,0-.309.222-.309.5v13.453a.2.2,0,0,0,.1.193h0a2.3,2.3,0,0,0,1.036.1h0C8539.714,7086.093,8539.78,7085.978,8539.78,7085.84Z" fill="#8c9091" stroke="#8c9091" stroke-miterlimit="10" stroke-width="1"/><path d="M8532.182,7085.84v-6.074a37.957,37.957,0,0,1,.222-4.1l.273-3.135c.033-.385.239-.671.482-.671h0c.171,0,.309.222.309.5v13.453a.2.2,0,0,1-.1.193h0a2.3,2.3,0,0,1-1.035.1h0C8532.249,7086.093,8532.182,7085.978,8532.182,7085.84Z" fill="#8c9091" stroke="#8c9091" stroke-miterlimit="10" stroke-width="1"/><path d="M8536.041,6998.929" fill="#8c9091"/><path d="M8535.981,7001.435" fill="#8c9091"/><path d="M8670.629,7321.708a8.465,8.465,0,0,1-1.992-.691c-.119-.083-.347.1-.477.1h-1.4c-.141,0-.256-.183-.256-.409h0l-4.515-1.344a.321.321,0,0,1-.164-.317v-8.932a3.136,3.136,0,0,1,.089-.747l4.085-14.4q.447-1.789.77-3.646l1.063-6.117a26.893,26.893,0,0,0,.188-3.186V7244.01l-4.438-1.888v-5.074a1.8,1.8,0,0,1,.147-.728l9.25-16.667.7-1.546c.4-.891,1.23-.891,1.631,0l.7,1.546,9.25,16.667a1.8,1.8,0,0,1,.147.728v5.074l-4.438,1.888v38.011a26.893,26.893,0,0,0,.188,3.186l1.063,6.117q.322,1.855.77,3.646l4.085,14.4a3.136,3.136,0,0,1,.09.747v8.932a.32.32,0,0,1-.165.317l-4.516,1.344h0c0,.226-.113.409-.256.409h-1.395c-.13,0-.278-.187-.4-.1-.292.2-2.487-.6-3.7-.282" fill="#8c9091"/><path d="M8677.633,7322.173l-6.46-.081-3.012-1.048-.269-1.315v-83.376s.4-3.542.846-5.373c.826-3.371,4.2-12.085,4.2-12.085l1.182-1.074,1.653,1.4a63.566,63.566,0,0,1,4.88,12.446l.482,3.744-.684,79.384-.067,6.175Z" fill="#fff"/><path d="M8677.09,7321.972a18.526,18.526,0,0,1-2.544.174,17.323,17.323,0,0,1-2.7-.322" fill="none" stroke="#fff" stroke-miterlimit="10" stroke-width="1"/><path d="M8675,7217.986l3.446,8.814,1.841,5.531.215,87.123.147,1.667V7242.25c0-7.1-.288-8.192-2.58-16.419-1.413-5.07-2.482-7.065-3.069-7.845a.585.585,0,0,0-1.017,0c-.587.78-1.657,2.775-3.069,7.845-2.292,8.227-2.581,9.318-2.581,16.419v78.871" fill="none" stroke="#fff" stroke-miterlimit="10" stroke-width="1"/><path d="M8678.292,7321.992v-6.074a38.215,38.215,0,0,0-.221-4.1l-.274-3.135c-.033-.384-.239-.67-.48-.67h0c-.172,0-.311.221-.311.494v13.453a.2.2,0,0,0,.1.194h0a2.293,2.293,0,0,0,1.034.1h0C8678.226,7322.245,8678.292,7322.13,8678.292,7321.992Z" fill="#8c9091" stroke="#8c9091" stroke-miterlimit="10" stroke-width="1"/><path d="M8670.694,7321.992v-6.074a37.964,37.964,0,0,1,.221-4.1l.274-3.135c.033-.384.238-.67.481-.67h0c.171,0,.31.221.31.494v13.453a.2.2,0,0,1-.1.194h0a2.3,2.3,0,0,1-1.035.1h0C8670.761,7322.245,8670.694,7322.13,8670.694,7321.992Z" fill="#8c9091" stroke="#8c9091" stroke-miterlimit="10" stroke-width="1"/><path d="M8674.554,7235.081" fill="#8c9091"/><path d="M8674.493,7237.588" fill="#8c9091"/></g><g transform="translate(-7962 -6327)"><path d="M8188.145,6990.618" fill="none" stroke="#8c9091" stroke-miterlimit="10" stroke-width="2.695"/><text transform="translate(8735.587 6734.565)" fill="#fff" font-size="40.499" font-family="D-DIN-Regular, D-DIN-Bold, D-DIN" font-weight="700"><tspan x="-20.574" y="0">03</tspan></text><path d="M8198.869,6966.169" fill="none" stroke="#8c9091" stroke-miterlimit="10" stroke-width="2.695"/><path d="M8198.862,6935.9" fill="none" stroke="#8c9091" stroke-miterlimit="10" stroke-width="2.695"/><text transform="translate(8158.486 7001.242)" fill="#fff" font-size="40.499" font-family="D-DIN-Regular, D-DIN-Bold, D-DIN" font-weight="700"><tspan x="-17.415" y="0">01</tspan></text></g><g transform="translate(-7962 -6327)"><circle cx="18.928" cy="18.928" r="18.928" transform="translate(8185.44 6968.983)" fill="#fff" stroke="#000" stroke-miterlimit="10" stroke-width="6"/><text transform="translate(8521.922 6576.921)" fill="#fff" font-size="40.499" font-family="D-DIN-Regular, D-DIN-Bold, D-DIN" font-weight="700"><tspan x="-20.351" y="0">02</tspan></text><circle cx="18.928" cy="18.928" r="18.928" transform="translate(8553.466 6542.614)" fill="#fff" stroke="#000" stroke-miterlimit="10" stroke-width="6"/><circle cx="18.928" cy="18.928" r="18.928" transform="translate(8664.778 6702.288)" fill="#fff" stroke="#000" stroke-miterlimit="10" stroke-width="6"/><text transform="translate(8855.007 6456.174)" fill="#fff" font-size="40.499" font-family="D-DIN-Regular, D-DIN-Bold, D-DIN" font-weight="700"><tspan x="-20.918" y="0">04</tspan></text><circle cx="18.928" cy="18.928" r="18.928" transform="translate(8886.231 6423.916)" fill="#fff" stroke="#000" stroke-miterlimit="10" stroke-width="6"/></g></g></g></svg>