<svg xmlns="http://www.w3.org/2000/svg" xmlns:xlink="http://www.w3.org/1999/xlink" viewBox="0 0 1125 1200"><g><g transform="translate(-9127.74 -6327.869)"><rect width="1146.595" height="2436" transform="translate(9121.677 6321.551)"/><path d="M9970.4,6738.674" fill="#fff" stroke="#000" stroke-miterlimit="10" stroke-width="1.5"/><path d="M9403.676,6851.527a10.228,10.228,0,0,1-1.483,2.065c-.139.109,0,.437-.045.587l-.48,1.613c-.049.163-.3.233-.561.155h0L9398,6860.7a.384.384,0,0,1-.423.081l-10.322-3.076a3.694,3.694,0,0,1-.832-.361l-15.236-9.68q-1.912-1.131-3.947-2.144l-6.7-3.335a32.537,32.537,0,0,0-3.617-1.315l-43.924-13.09-3.709,4.479-5.864-1.747a2.164,2.164,0,0,1-.791-.421l-16.074-16.429-1.546-1.336c-.892-.77-.605-1.728.562-1.884l2.025-.272,22.445-4.949a2.146,2.146,0,0,1,.892.081l5.864,1.747.652,5.779,43.925,13.09a32.407,32.407,0,0,0,3.746.879l7.435.879q2.254.267,4.479.367l18.049.239a3.672,3.672,0,0,1,.894.154l10.321,3.076c.18.053.311.179.311.3v5.68h0c.261.078.433.273.384.437l-.48,1.613c-.045.15-.312.256-.257.423.135.407-1.55,2.668-1.6,4.181" fill="#8c9091"/><path d="M9406.625,6843.6l-2.318,7.437-2.248,3.119-1.611-.142L9304.1,6825.3s-3.957-1.678-5.918-2.827c-3.611-2.115-12.52-9.015-12.52-9.015l-.833-1.733,2.183-1.43a76.567,76.567,0,0,1,16.063-1.353l4.492.731,91.5,28.129,7.111,2.2Z" fill="#fff"/><path d="M9406.206,6844.153a22.234,22.234,0,0,1-.675,3,20.911,20.911,0,0,1-1.3,3.006" fill="none" stroke="#fff" stroke-miterlimit="10" stroke-width="1"/><path d="M9285.324,6810.756l11.372-.947,7.024-.223,100.751,29.755,1.978.4-91.142-27.162c-8.205-2.445-9.564-2.487-19.861-2.672-6.345-.114-9.02.435-10.122.845a.706.706,0,0,0-.351,1.175c.7.947,2.637,2.87,8.009,6.248,8.719,5.482,9.88,6.19,18.085,8.636l91.141,27.161" fill="none" stroke="#fff" stroke-miterlimit="10" stroke-width="1"/><path d="M9406.643,6842.771l-7.019-2.092a45.833,45.833,0,0,0-4.814-1.157l-3.717-.763c-.455-.094-.856.045-.939.326h0c-.06.2.148.434.465.528l15.545,4.632a.238.238,0,0,0,.258-.047h0a2.789,2.789,0,0,0,.476-1.16h0C9406.913,6842.934,9406.8,6842.818,9406.643,6842.771Z" fill="#8c9091" stroke="#8c9091" stroke-miterlimit="10" stroke-width="1"/><path d="M9404.027,6851.55l-7.02-2.092a45.748,45.748,0,0,1-4.662-1.667l-3.528-1.4c-.433-.171-.692-.507-.608-.787h0c.059-.2.362-.282.678-.188l15.546,4.633c.108.032.188.108.189.18h0a2.778,2.778,0,0,1-.238,1.232h0C9404.342,6851.561,9404.186,6851.6,9404.027,6851.55Z" fill="#8c9091" stroke="#8c9091" stroke-miterlimit="10" stroke-width="1"/><path d="M9299.4,6815.359l-1.275,4.279a.635.635,0,0,1-.938.153c-.936-.68-.771-.494-4.281-3.125-5.716-4.283-4.766-4.532-4.766-4.532s-.593-1.049,6.54-1.424c4.462-.235,4.078-.191,5.293-.272.444-.029.78.383.7.642Z" fill="#8c9091"/><path d="M9301.913,6816.238l1.5-5.018a.343.343,0,0,1,.281-.238l.216-.035a.371.371,0,0,1,.43.45l-1.521,5.11" fill="#8c9091"/><path d="M9304.925,6817.161l1.734-5.82a.414.414,0,0,1,.282-.289l.208-.053c.26-.066.467.2.381.487l-1.767,5.925" fill="#8c9091"/><path d="M9307.8,6818.094l1.735-5.82a.412.412,0,0,1,.281-.289l.208-.053c.26-.066.467.2.381.486l-1.767,5.926" fill="#8c9091"/><path d="M9310.807,6818.99l1.735-5.82a.415.415,0,0,1,.282-.289l.207-.053c.26-.066.467.2.381.487l-1.765,5.925" fill="#8c9091"/><path d="M9301.913,6816.238l-1.5,5.019a.341.341,0,0,0,.105.353l.161.147a.371.371,0,0,0,.606-.141l1.523-5.109" fill="#8c9091"/><path d="M9304.925,6817.161l-1.733,5.819a.415.415,0,0,0,.076.4l.146.158a.35.35,0,0,0,.585-.2l1.766-5.925" fill="#8c9091"/><path d="M9307.8,6818.094l-1.733,5.819a.413.413,0,0,0,.077.4l.146.158a.349.349,0,0,0,.584-.2l1.766-5.925" fill="#8c9091"/><path d="M9310.807,6818.99l-1.733,5.819a.41.41,0,0,0,.078.4l.145.158a.35.35,0,0,0,.585-.2l1.767-5.925" fill="#8c9091"/><text transform="translate(9854.876 7235.847)" fill="#fff" font-size="20.109" font-family="D-DIN-Bold, D-DIN" font-weight="700"><tspan x="0" y="0">POWER</tspan></text><line x1="87.444" transform="translate(9936.573 7295.651)" stroke-dasharray="0 3.94" stroke="#fff" stroke-linecap="round" stroke-miterlimit="10" stroke-width="1.6" fill="none"/><line x1="78.678" transform="translate(9746.312 7295.651)" stroke-dasharray="0 3.94" stroke="#fff" stroke-linecap="round" stroke-miterlimit="10" stroke-width="1.6" fill="none"/><g transform="translate(167)"><text transform="translate(9769.444 7239.662)" fill="#fff" font-size="24.287" font-family="D-DIN-Bold, D-DIN" font-weight="700"><tspan x="0" y="0">H</tspan></text><text transform="translate(9796.348 7239.662)" fill="#fff" font-size="24.287" font-family="D-DIN-Bold, D-DIN" font-weight="700"><tspan x="0" y="0">O</tspan></text><text transform="translate(9785.799 7244.702)" fill="#fff" font-size="18.215" font-family="D-DIN-Bold, D-DIN" font-weight="700"><tspan x="0" y="0">2</tspan></text><text transform="translate(9769.358 7266.179)" fill="#fff" font-size="24.287" font-family="D-DIN-Bold, D-DIN" font-weight="700"><tspan x="0" y="0">C</tspan></text><text transform="translate(9786.014 7266.179)" fill="#fff" font-size="24.287" font-family="D-DIN-Bold, D-DIN" font-weight="700"><tspan x="0" y="0">O</tspan></text><text transform="translate(9801.942 7271.22)" fill="#fff" font-size="18.215" font-family="D-DIN-Bold, D-DIN" font-weight="700"><tspan x="0" y="0">2</tspan></text></g><g transform="translate(-197 -2)"><text transform="translate(9963.259 7240.249)" fill="#fff" font-size="23.068" font-family="D-DIN-Bold, D-DIN" font-weight="700"><tspan x="0" y="0">C</tspan></text><text transform="translate(9979.075 7240.249)" fill="#fff" font-size="23.068" font-family="D-DIN-Bold, D-DIN" font-weight="700"><tspan x="0" y="0">H</tspan></text><text transform="translate(9994.203 7245.038)" fill="#fff" font-size="17.301" font-family="D-DIN-Bold, D-DIN" font-weight="700"><tspan x="0" y="0">4</tspan></text><text transform="translate(9963.014 7265.398)" fill="#fff" font-size="23.068" font-family="D-DIN-Bold, D-DIN" font-weight="700"><tspan x="0" y="0">O</tspan></text><text transform="translate(9978.142 7270.185)" fill="#fff" font-size="17.301" font-family="D-DIN-Bold, D-DIN" font-weight="700"><tspan x="0" y="0">2</tspan></text></g><text transform="translate(9504.412 7361.331)" fill="#fff" font-size="48.877" font-family="D-DIN-Bold, DIN Pro" font-weight="700" opacity="0.87"><tspan x="99.991" y="51">MARS</tspan></text><path d="M10154.263,7328.557" fill="none" stroke="#fff" stroke-miterlimit="10" stroke-width="1.047"/><path d="M9232.534,7328.557" fill="none" stroke="#fff" stroke-miterlimit="10" stroke-width="1.047"/><path d="M9965.228,6992.893c38.452,76.5,68.4,161.669,77.665,204.9" fill="none" stroke="#fff" stroke-linecap="round" stroke-miterlimit="10" stroke-width="1.5"/><path d="M9763.326,6713.409c42.112,42.039,81.8,87.868,115.193,133.406" fill="none" stroke="#fff" stroke-linecap="round" stroke-miterlimit="10" stroke-width="1.5"/><path d="M9311.219,6498.682c142.443,11.554,270.425,67.634,368.093,139.316" fill="none" stroke="#fff" stroke-linecap="round" stroke-miterlimit="10" stroke-width="1.5"/><path d="M9434.24,6857.708c172.773,45.286,231.824,208.733,254.878,292.039" fill="none" stroke="#fff" stroke-linecap="round" stroke-miterlimit="10" stroke-width="1.5"/><g opacity="0.4"><path d="M9702.373,7301.832l-5.237-36.559h-14.825l-5.234,36.561c4.118-.336,8.342-.52,12.658-.52S9698.261,7301.5,9702.373,7301.832Z" fill="#fff"/><path d="M9685.34,7294.751c-.729.126-1.448.284-2.154.476l.751,13.69Z" fill="#fff"/><path d="M9684.244,7314.5l.354,6.477h9.605l.353-6.431Z" fill="#fff"/><path d="M9666.42,7311.636a9.137,9.137,0,0,1,1.615-.152,9.5,9.5,0,0,1,9.37,9.5h.061l1.319-24.067A24.612,24.612,0,0,0,9666.42,7311.636Z" fill="#fff"/><path d="M9695.615,7295.241q-1.085-.3-2.21-.491l1.439,14.537Z" fill="#fff"/><path d="M9710.716,7311.484a9.137,9.137,0,0,1,1.615.152,24.611,24.611,0,0,0-12.312-14.693l1.318,24.039h.009A9.5,9.5,0,0,1,9710.716,7311.484Z" fill="#fff"/><path d="M9684.244,7314.5l10.312.046.289-5.264-1.439-14.537a23.305,23.305,0,0,0-8.065,0l-1.4,14.166Z" fill="#fff"/><path d="M9683.384,7314.5l.553-5.584-.751-13.69a23.533,23.533,0,0,0-4.4,1.688l-1.319,24.067h7.133l-.354-6.477Z" fill="#fff"/><path d="M9683.384,7314.5l.86,0-.307-5.588Z" fill="#fff"/><path d="M9695.615,7295.241l-.771,14.046.522,5.268-.812,0-.352,6.431h7.133l-1.318-24.039A23.527,23.527,0,0,0,9695.615,7295.241Z" fill="#fff"/><path d="M9695.367,7314.555l-.522-5.268-.288,5.264Z" fill="#fff"/><path d="M9666.42,7311.636a9.138,9.138,0,0,0-2.882,1.027,13.5,13.5,0,0,1,1.948,3.381A25.139,25.139,0,0,1,9666.42,7311.636Z" fill="#fff"/><path d="M9668.035,7311.484a9.137,9.137,0,0,0-1.615.152,25.139,25.139,0,0,0-.934,4.408,13.7,13.7,0,0,1,.964,4.938h10.955A9.5,9.5,0,0,0,9668.035,7311.484Z" fill="#fff"/><path d="M9663.538,7312.663a12.921,12.921,0,0,0-10.158-4.978,13.1,13.1,0,0,0-12.3,8.908,9.289,9.289,0,0,1,5.608,4.389h11.979A9.655,9.655,0,0,1,9663.538,7312.663Z" fill="#fff"/><path d="M9665.486,7316.044a13.5,13.5,0,0,0-1.948-3.381,9.655,9.655,0,0,0-4.873,8.319h6.7c-.045-.615-.075-1.235-.075-1.862A25.585,25.585,0,0,1,9665.486,7316.044Z" fill="#fff"/><path d="M9665.294,7319.12c0,.627.03,1.247.075,1.862h1.081a13.7,13.7,0,0,0-.964-4.938A25.585,25.585,0,0,0,9665.294,7319.12Z" fill="#fff"/><path d="M9715.213,7312.663a9.138,9.138,0,0,0-2.882-1.027,25.139,25.139,0,0,1,.934,4.408A13.5,13.5,0,0,1,9715.213,7312.663Z" fill="#fff"/><path d="M9712.331,7311.636a9.137,9.137,0,0,0-1.615-.152,9.5,9.5,0,0,0-9.37,9.5H9712.3a13.723,13.723,0,0,1,.964-4.938A25.139,25.139,0,0,0,9712.331,7311.636Z" fill="#fff"/><path d="M9737.673,7316.593a13.094,13.094,0,0,0-12.3-8.908,12.922,12.922,0,0,0-10.158,4.978,9.655,9.655,0,0,1,4.873,8.319h11.979A9.289,9.289,0,0,1,9737.673,7316.593Z" fill="#fff"/><path d="M9715.213,7312.663a13.5,13.5,0,0,0-1.948,3.381,25.585,25.585,0,0,1,.192,3.076c0,.627-.03,1.247-.075,1.862h6.7A9.655,9.655,0,0,0,9715.213,7312.663Z" fill="#fff"/><path d="M9713.265,7316.044a13.723,13.723,0,0,0-.964,4.938h1.081c.045-.615.075-1.235.075-1.862A25.585,25.585,0,0,0,9713.265,7316.044Z" fill="#fff"/><path d="M9740.046,7316.266a9.048,9.048,0,0,0-2.373.327,13.666,13.666,0,0,1,.77,4.389h9.586A9.2,9.2,0,0,0,9740.046,7316.266Z" fill="#fff"/><path d="M9732.064,7320.982h6.378a13.666,13.666,0,0,0-.77-4.389A9.289,9.289,0,0,0,9732.064,7320.982Z" fill="#fff"/><path d="M9638.705,7316.266a9.2,9.2,0,0,0-7.982,4.716h9.586a13.693,13.693,0,0,1,.77-4.389A9.048,9.048,0,0,0,9638.705,7316.266Z" fill="#fff"/><path d="M9641.078,7316.593a13.693,13.693,0,0,0-.77,4.389h6.378A9.289,9.289,0,0,0,9641.078,7316.593Z" fill="#fff"/></g><path d="M9832.733,6950.21c119.5,25.069,141.728,18.04,100.333-125.547,0,0,44.5,108.758,17.133,135.152S9832.733,6950.21,9832.733,6950.21Z" fill="#cbcbcb"/><path d="M9902.191,6984.891c57.729-6,67.281-20.433,65.1-84.944,0,0,11.119,46.816-5.358,67.688C9947.266,6986.208,9902.191,6984.891,9902.191,6984.891Z" fill="#cbcbcb"/><path d="M9692.069,6718.195c57.729-6,67.281-20.432,65.1-84.944,0,0,11.12,46.817-5.358,67.689C9737.144,6719.513,9692.069,6718.195,9692.069,6718.195Z" fill="#cbcbcb"/><line x2="0.646" y2="2.511" transform="translate(9908.184 6906.002)" fill="#fff" stroke="#000" stroke-miterlimit="10" stroke-width="0.81"/><path d="M9898,6916.919c-.057.328-.341.553-.582.469L9893.4,6916l-4.019-1.392a.5.5,0,0,1-.166-.729,36.918,36.918,0,0,1,3.5-4.937" stroke="#000" stroke-miterlimit="10" stroke-width="0.27"/><path d="M9891.16,6918.781l5.729,1.984c.143.049.211.27.18.572l-.052.482c-.062.6-.476,1.2-.76,1.1l-5.832-2.02"/><path d="M9889.923,6922.351l6.118,2.119c.152.053.221.3.179.646l-.065.55c-.083.688-.543,1.381-.846,1.277l-6.229-2.158"/><path d="M9888.523,6926.393l6.117,2.119c.152.052.229.282.2.595l-.049.5c-.062.625-.494,1.243-.8,1.138l-6.229-2.157"/><path d="M9891.16,6918.781l-5.729-1.985c-.142-.049-.332.082-.494.339l-.259.41c-.322.513-.369,1.24-.086,1.339l5.833,2.02"/><path d="M9889.923,6922.351l-6.117-2.119c-.151-.052-.359.1-.541.4l-.288.473c-.359.592-.428,1.421-.125,1.526l6.229,2.157"/><path d="M9888.523,6926.393l-6.117-2.119c-.152-.053-.354.081-.523.345l-.27.423c-.339.529-.381,1.283-.078,1.387l6.228,2.158"/><path d="M9905.519,6950.269l10.467-95.416c.919-8.383,1.143-14.321-1.15-24.4-2.209-9.709-4.163-10.417-4.163-10.417s-2.061.268-6.322,9.27c-4.424,9.346-5.492,15.191-6.411,23.573l-10.467,95.417,6,1.9,4.261.542a11.631,11.631,0,0,0,2.564.041l6-.68" fill="#fff" stroke="#000" stroke-miterlimit="10" stroke-width="1.5"/><path d="M9904.968,6950.027l-2.331-.66-7.725-2.451a.372.372,0,0,1-.2-.4l1.06-9.659a2.957,2.957,0,0,1,.229-.867l9.61-20.547q.885-2.038,1.6-4.18l2.349-7.052a12.42,12.42,0,0,0,.552-2.473c0-.036-5.146,48.326-5.142,48.29" fill="#8c9091"/><path d="M9908.308,6822.942l2.649-3.723,1.778,4.208,1.067,2.651" fill="#fff" stroke="#000" stroke-miterlimit="10" stroke-width="1.5"/><path d="M9890.725,6950.442a11.2,11.2,0,0,1-2.845-1.366,1.122,1.122,0,0,0-.537-.21" fill="#fff" stroke="#000" stroke-miterlimit="10" stroke-width="1.5"/><path d="M9905.246,6950.957c-3.4,1.41-7.32.748-8.678.6" fill="#fff" stroke="#000" stroke-miterlimit="10" stroke-width="1.5"/><path d="M9887.255,6950.426l.856-7.808a44.277,44.277,0,0,1,.774-4.705l.943-4.271a.8.8,0,0,1,.793-.714h0a.533.533,0,0,1,.389.633l-1.868,17.033a.228.228,0,0,1-.169.213h0a4.18,4.18,0,0,1-1.529-.045h0A.294.294,0,0,1,9887.255,6950.426Z" fill="#8c9091"/><path d="M9901.643,6839.058c.315-.9.84-2.462,1.521-4.19,1.8-4.573,4.317-10.274,4.028-7.643-.5,4.528-1.678,10.579-1.655,11.534.009.386-.212.721-.452.694l-3.362-.369" fill="#8c9091"/><path d="M9900.67,6842.8l4.519.494c.14.015.245.244.271.594l.043.559c.054.7-.217,1.493-.5,1.462l-4.895-.535" fill="#8c9091"/><path d="M9899.786,6847.136l4.476.489c.15.017.262.279.286.679l.041.639c.052.8-.245,1.712-.545,1.679l-4.7-.513" fill="#8c9091"/><path d="M9899.1,6852.077l4.623.506c.13.014.225.25.245.61l.033.576c.041.72-.219,1.543-.478,1.515l-4.724-.516" fill="#8c9091"/><path d="M9915.741,6857.515" fill="none" stroke="#000" stroke-miterlimit="10" stroke-width="2"/><path d="M9914.716,6834.184a35.891,35.891,0,0,1,1.248,10.61c-.056,5.828-.877,12.4-.877,12.4l-7.926-2.69.657-5.991a7.357,7.357,0,0,1,.313-1.352l6.012-11.992.572-.987" fill="#8c9091"/><path d="M9910.818,6902.39" fill="none" stroke="#000" stroke-miterlimit="10" stroke-width="2"/><path d="M9707.555,6778.038a.5.5,0,0,1-.739.108l-2.751-3.241-2.75-3.242a.505.505,0,0,1,.227-.713,36.86,36.86,0,0,1,5.523-2.471" stroke="#000" stroke-miterlimit="10" stroke-width="0.27"/><path d="M9700.718,6776.16l3.922,4.623c.1.115.044.34-.137.584l-.289.389c-.361.487-1.021.793-1.217.565l-3.993-4.707"/><path d="M9697.836,6778.6l4.189,4.937c.1.122.035.372-.176.647l-.337.44c-.421.549-1.169.913-1.377.668l-4.264-5.026"/><path d="M9694.575,6781.372l4.188,4.937c.1.122.054.358-.133.612l-.3.405c-.371.507-1.058.819-1.266.574l-4.265-5.026"/><path d="M9700.718,6776.16l-3.923-4.623c-.1-.114-.328-.1-.6.04l-.432.222c-.539.277-.948.879-.755,1.108l3.993,4.707"/><path d="M9697.836,6778.6l-4.187-4.937c-.1-.122-.362-.1-.667.067l-.489.261c-.611.326-1.092,1-.884,1.249l4.264,5.026"/><path d="M9694.575,6781.372l-4.189-4.937c-.1-.122-.345-.11-.626.032l-.448.226c-.56.283-.979.911-.771,1.155l4.264,5.026"/><path d="M9676.391,6715.889l57.558-76.818c5.056-6.749,8.27-11.747,11.425-21.592,3.038-9.483,1.716-11.087,1.716-11.087s-1.911-.817-10.159,4.764c-8.562,5.8-12.458,10.284-17.514,17.032l-57.557,76.819,4.2,4.682,3.393,2.634a11.629,11.629,0,0,0,2.187,1.34l5.513,2.469" fill="#fff" stroke="#000" stroke-miterlimit="10" stroke-width="1.5"/><path d="M9676.04,6715.4l-1.671-1.754-5.4-6.041a.37.37,0,0,1,.032-.447l5.826-7.777a2.987,2.987,0,0,1,.638-.63l18.728-12.8q1.8-1.305,3.5-2.785l5.609-4.876a12.469,12.469,0,0,0,1.732-1.848c.021-.029-29.018,38.985-29,38.957" fill="#8c9091"/><path d="M9743.574,6607.693l4.175-1.857-.609,4.528-.431,2.825" fill="#fff" stroke="#000" stroke-miterlimit="10" stroke-width="1.5"/><path d="M9663.568,6708.512a11.16,11.16,0,0,1-1.755-2.625,1.128,1.128,0,0,0-.355-.453" fill="#fff" stroke="#000" stroke-miterlimit="10" stroke-width="1.5"/><path d="M9675.806,6716.342c-3.642-.514-6.682-3.079-7.775-3.9" fill="#fff" stroke="#000" stroke-miterlimit="10" stroke-width="1.5"/><path d="M9660.588,6706.732l4.71-6.286a44.019,44.019,0,0,1,3.062-3.657l2.984-3.2a.805.805,0,0,1,1.046-.211h0a.535.535,0,0,1,.014.743l-10.275,13.714a.23.23,0,0,1-.254.1h0a4.173,4.173,0,0,1-1.295-.817h0A.3.3,0,0,1,9660.588,6706.732Z" fill="#8c9091"/><path d="M9729.637,6618.177c.728-.611,1.976-1.693,3.44-2.834,3.88-3.02,8.944-6.649,7.356-4.531-2.73,3.645-6.825,8.254-7.293,9.087-.188.338-.55.513-.742.369l-2.707-2.029" fill="#8c9091"/><path d="M9726.894,6620.9l3.639,2.724c.114.085.088.336-.067.65l-.248.5c-.309.629-.945,1.175-1.173,1.005l-3.942-2.951" fill="#8c9091"/><path d="M9723.928,6624.186l3.605,2.7c.121.091.083.372-.1.73l-.29.572c-.362.714-1.082,1.349-1.323,1.167l-3.783-2.831" fill="#8c9091"/><path d="M9720.822,6628.09l3.723,2.787c.1.078.066.329-.1.65l-.266.513c-.331.64-.973,1.217-1.182,1.061l-3.8-2.848" fill="#8c9091"/><path d="M9732.383,6641.238" fill="none" stroke="#000" stroke-miterlimit="10" stroke-width="2"/><path d="M9743.372,6620.632a35.955,35.955,0,0,1-4.324,9.769c-3.014,4.989-7.065,10.23-7.065,10.23l-5.454-6.348,3.612-4.823a7.359,7.359,0,0,1,.959-1l11.277-7.265,1-.558" fill="#8c9091"/><path d="M9705.313,6677.367" fill="none" stroke="#000" stroke-miterlimit="10" stroke-width="2"/><path d="M9682,7267.145l-4.515-1.344a.319.319,0,0,1-.165-.317v-8.932a3.08,3.08,0,0,1,.09-.747l4.085-14.4q.447-1.788.769-3.646l1.063-6.118a26.877,26.877,0,0,0,.188-3.185v-38.011l-4.437-1.888v-5.074a1.8,1.8,0,0,1,.146-.729l9.25-16.666.7-1.546c.4-.891,1.23-.891,1.631,0l.7,1.546,9.25,16.666a1.8,1.8,0,0,1,.146.729v5.074l-4.437,1.888v38.011a26.877,26.877,0,0,0,.188,3.185l1.063,6.118q.322,1.856.769,3.646l4.085,14.4a3.08,3.08,0,0,1,.091.747v8.932a.319.319,0,0,1-.165.317l-4.516,1.344" fill="#8c9091"/><path d="M9683.652,7267.477l-.27-1.315v-83.376s.4-3.542.846-5.373c.825-3.371,4.2-12.086,4.2-12.086l1.181-1.073,1.653,1.4a63.442,63.442,0,0,1,4.88,12.446l.483,3.743-.684,79.385-.067,6.175" fill="#fff"/><path d="M9696.142,7267.554v-78.872c0-7.1-.288-8.191-2.58-16.418-1.412-5.07-2.481-7.066-3.068-7.845a.586.586,0,0,0-1.018,0c-.588.779-1.656,2.775-3.068,7.845-2.292,8.227-2.581,9.318-2.581,16.418v78.872" fill="none" stroke="#fff" stroke-miterlimit="10" stroke-width="1"/><path d="M9690.492,7164.418l3.446,8.814,1.842,5.531.214,87.124.147,1.667" fill="none" stroke="#fff" stroke-miterlimit="10" stroke-width="1"/><path d="M9693.783,7268.425v-6.074a37.957,37.957,0,0,0-.222-4.1l-.273-3.135c-.033-.385-.239-.67-.482-.67h0c-.17,0-.309.221-.309.494v13.453" fill="#8c9091" stroke="#8c9091" stroke-miterlimit="10" stroke-width="1"/><path d="M9686.185,7268.425v-6.074a37.957,37.957,0,0,1,.222-4.1l.273-3.135c.033-.385.239-.67.482-.67h0c.171,0,.309.221.309.494v13.453" fill="#8c9091" stroke="#8c9091" stroke-miterlimit="10" stroke-width="1"/><path d="M9690.168,7176.7h-3.7c-.224,0-.467-.362-.344-.71.32-.9.21-.729,1.47-4.143,2.051-5.557,2.475-4.861,2.475-4.861s.691-.719,2.68,4.861c1.244,3.491,1.118,3.2,1.47,4.143.128.346-.12.71-.344.71Z" fill="#8c9091"/><path d="M9690.064,7178.9h4.343a.287.287,0,0,1,.256.167l.078.164a.307.307,0,0,1-.255.448h-4.422" fill="#8c9091"/><path d="M9690.044,7181.514h5.037a.341.341,0,0,1,.3.156l.091.152c.114.191-.047.418-.3.418h-5.128" fill="#8c9091"/><path d="M9689.984,7184.02h5.035a.348.348,0,0,1,.3.156l.091.153c.114.19-.047.418-.3.418h-5.128" fill="#8c9091"/><path d="M9689.984,7186.623h5.035a.346.346,0,0,1,.3.156l.091.152c.114.191-.047.418-.3.418h-5.128" fill="#8c9091"/><path d="M9690.064,7178.9h-4.344a.285.285,0,0,0-.255.167l-.079.164a.307.307,0,0,0,.255.448h4.423" fill="#8c9091"/><path d="M9690.044,7181.514h-5.036a.341.341,0,0,0-.3.156l-.091.152c-.114.191.047.418.3.418h5.127" fill="#8c9091"/><path d="M9689.984,7184.02h-5.036a.344.344,0,0,0-.3.156l-.093.153c-.113.19.048.418.3.418h5.127" fill="#8c9091"/><path d="M9689.984,7186.623h-5.036a.341.341,0,0,0-.3.156l-.093.152c-.113.191.048.418.3.418h5.127" fill="#8c9091"/><path d="M10038.063,7319.962l-4.516-1.344a.321.321,0,0,1-.164-.317v-8.932a3.081,3.081,0,0,1,.09-.747l4.084-14.4q.448-1.789.771-3.646l1.062-6.118a26.876,26.876,0,0,0,.189-3.185V7243.26l-4.439-1.888V7236.3a1.818,1.818,0,0,1,.147-.729l9.25-16.666.7-1.546c.4-.891,1.229-.891,1.631,0l.694,1.546,9.251,16.666a1.8,1.8,0,0,1,.146.729v5.074l-4.438,1.888v38.011a26.876,26.876,0,0,0,.189,3.185l1.062,6.118q.324,1.855.771,3.646l4.084,14.4a3.081,3.081,0,0,1,.09.747v8.932a.32.32,0,0,1-.165.317l-4.515,1.344" fill="#8c9091"/><path d="M10039.716,7320.294l-.268-1.315V7235.6s.4-3.542.845-5.373c.826-3.371,4.2-12.086,4.2-12.086l1.181-1.073,1.653,1.4a63.442,63.442,0,0,1,4.88,12.446l.483,3.743-.685,79.385-.066,6.175" fill="#fff"/><path d="M10052.206,7320.371V7241.5c0-7.1-.288-8.191-2.58-16.418-1.412-5.07-2.482-7.066-3.069-7.845a.585.585,0,0,0-1.017,0c-.587.779-1.657,2.775-3.069,7.845-2.292,8.227-2.58,9.318-2.58,16.418v78.872" fill="none" stroke="#fff" stroke-miterlimit="10" stroke-width="1"/><path d="M10046.557,7217.235l3.446,8.814,1.841,5.531.215,87.124.147,1.667" fill="none" stroke="#fff" stroke-miterlimit="10" stroke-width="1"/><path d="M10049.847,7321.242v-6.074a38.214,38.214,0,0,0-.22-4.1l-.274-3.135c-.033-.385-.239-.67-.481-.67h0c-.171,0-.311.221-.311.494v13.453" fill="#8c9091" stroke="#8c9091" stroke-miterlimit="10" stroke-width="1"/><path d="M10042.25,7321.242v-6.074a38.214,38.214,0,0,1,.22-4.1l.274-3.135c.034-.385.239-.67.481-.67h0c.172,0,.31.221.31.494v13.453" fill="#8c9091" stroke="#8c9091" stroke-miterlimit="10" stroke-width="1"/><path d="M10046.232,7229.515h-3.7c-.225,0-.466-.362-.344-.71.319-.9.211-.729,1.47-4.142,2.051-5.558,2.474-4.862,2.474-4.862s.693-.719,2.681,4.861c1.243,3.491,1.117,3.2,1.47,4.143.129.346-.12.71-.345.71Z" fill="#8c9091"/><path d="M10046.128,7231.719h4.344a.285.285,0,0,1,.255.167l.079.164a.307.307,0,0,1-.256.448h-4.422" fill="#8c9091"/><path d="M10046.109,7234.331h5.035a.344.344,0,0,1,.3.156l.092.152c.114.191-.047.418-.3.418h-5.127" fill="#8c9091"/><path d="M10046.048,7236.837h5.037a.343.343,0,0,1,.3.156l.091.153c.114.19-.047.418-.3.418h-5.128" fill="#8c9091"/><path d="M10046.048,7239.44h5.037a.341.341,0,0,1,.3.156l.091.152c.114.191-.047.418-.3.418h-5.128" fill="#8c9091"/><path d="M10046.128,7231.719h-4.343a.285.285,0,0,0-.255.167l-.079.164a.307.307,0,0,0,.256.448h4.421" fill="#8c9091"/><path d="M10046.109,7234.331h-5.037a.343.343,0,0,0-.3.156l-.092.152c-.113.191.048.418.3.418h5.128" fill="#8c9091"/><path d="M10046.048,7236.837h-5.036a.344.344,0,0,0-.3.156l-.091.153c-.114.19.047.418.3.418h5.127" fill="#8c9091"/><path d="M10046.048,7239.44h-5.036a.342.342,0,0,0-.3.156l-.091.152c-.114.191.047.418.3.418h5.127" fill="#8c9091"/><path d="M9513.352,7223.966" fill="none" stroke="#8c9091" stroke-miterlimit="10" stroke-width="2.695"/><path d="M9546.939,7223.958" fill="none" stroke="#8c9091" stroke-miterlimit="10" stroke-width="2.695"/><path d="M9839.874,7301.195" fill="none" stroke="#fff" stroke-miterlimit="10" stroke-width="1.116" stroke-dasharray="4.463"/><rect width="22.873" height="47.419" rx="11.436" stroke-width="1.818" fill="none" stroke="#fff" stroke-linecap="round" stroke-miterlimit="10" transform="translate(9839.595 7263.539)"/><rect width="22.873" height="47.419" rx="11.436" stroke-width="1.818" fill="none" stroke="#fff" stroke-linecap="round" stroke-miterlimit="10" transform="translate(9871.394 7263.539)"/><rect width="22.873" height="47.419" rx="11.436" stroke-width="1.818" fill="none" stroke="#fff" stroke-linecap="round" stroke-miterlimit="10" transform="translate(9900.961 7263.539)"/><line y2="19.804" transform="translate(9840.989 7305.378)" fill="none" stroke="#fff" stroke-miterlimit="10" stroke-width="1.674"/><line y2="19.804" transform="translate(9861.123 7304.931)" fill="none" stroke="#fff" stroke-miterlimit="10" stroke-width="1.674"/><line x2="3.008" y2="15.753" transform="translate(9845.731 7309.284)" fill="none" stroke="#fff" stroke-miterlimit="10" stroke-width="1.674"/><line x1="3.008" y2="15.753" transform="translate(9853.372 7309.49)" fill="none" stroke="#fff" stroke-miterlimit="10" stroke-width="1.674"/><line y2="19.804" transform="translate(9872.702 7305.348)" fill="none" stroke="#fff" stroke-miterlimit="10" stroke-width="1.674"/><line y2="19.804" transform="translate(9892.836 7304.9)" fill="none" stroke="#fff" stroke-miterlimit="10" stroke-width="1.674"/><line x2="3.008" y2="15.753" transform="translate(9877.444 7309.253)" fill="none" stroke="#fff" stroke-miterlimit="10" stroke-width="1.674"/><line x1="3.008" y2="15.753" transform="translate(9885.085 7309.459)" fill="none" stroke="#fff" stroke-miterlimit="10" stroke-width="1.674"/><line y2="19.804" transform="translate(9902.178 7305.395)" fill="none" stroke="#fff" stroke-miterlimit="10" stroke-width="1.674"/><line y2="19.804" transform="translate(9922.312 7304.947)" fill="none" stroke="#fff" stroke-miterlimit="10" stroke-width="1.674"/><line x2="3.008" y2="15.753" transform="translate(9906.92 7309.299)" fill="none" stroke="#fff" stroke-miterlimit="10" stroke-width="1.674"/><line x1="3.008" y2="15.753" transform="translate(9914.561 7309.505)" fill="none" stroke="#fff" stroke-miterlimit="10" stroke-width="1.674"/><line x2="988.969" transform="translate(9195.329 7326.42)" fill="none" stroke="#fff" stroke-miterlimit="10" stroke-width="1.047"/></g><g transform="translate(-9127.74 -6327.869)"><text transform="translate(9630.724 7149.653)" fill="#fff" font-size="40.499" font-family="D-DIN-Bold, D-DIN" font-weight="700"><tspan x="-20.432" y="0">05</tspan></text><circle cx="18.928" cy="18.928" r="18.928" transform="translate(9664.813 7114.209)" fill="#fff" stroke="#000" stroke-miterlimit="10" stroke-width="6"/><text transform="translate(9364.545 6761.911)" fill="#fff" font-size="40.499" font-family="D-DIN-Bold, D-DIN" font-weight="700"><tspan x="-20.817" y="0">06</tspan></text><circle cx="18.928" cy="18.928" r="18.928" transform="translate(9345.621 6770.753)" fill="#fff" stroke="#000" stroke-miterlimit="10" stroke-width="6"/></g></g></svg>